<?xml version="1.0" encoding="UTF-8"?>
<svg id="Capa_2" data-name="Capa 2" xmlns="http://www.w3.org/2000/svg" viewBox="0 0 342.72 263.61">
  <defs>
    <style>
      .cls-1 {
        fill: #7c434a;
      }

      .cls-2 {
        stroke-linejoin: round;
      }

      .cls-2, .cls-3 {
        stroke-linecap: round;
      }

      .cls-2, .cls-3, .cls-4 {
        fill: none;
        stroke: #7c434a;
        stroke-width: 5px;
      }

      .cls-3, .cls-4 {
        stroke-miterlimit: 10;
      }
    </style>
  </defs>
  <g id="Logos">
    <g id="envíos">
      <g id="_ícono_envíos" data-name="ícono envíos">
        <g id="Regalo_completo" data-name="Regalo completo">
          <g id="moño_completo" data-name="moño completo">
            <path id="moño" class="cls-3" d="m198.89,30.77c-6.53-2.81-14.5-8.18-18.32-14.24-.87-1.38-1.61-2.86-1.98-4.45-.44-1.93-.28-4.09.81-5.78,2.27-3.52,7.41-4.13,11.2-3.67,8.65,1.05,16.84,5.95,21.06,13.64.1.18.21.37.38.49s.43.14.57,0c.08-.08.12-.2.15-.31.91-3.35,2.94-5.83,5.57-8.03,3.61-3.02,8.16-4.82,12.78-5.53,4.09-.63,9.4-.79,12.42,2.6.23.26.44.53.63.82,1.09,1.7,1.25,3.85.81,5.78-.36,1.59-1.11,3.07-1.98,4.45-3.82,6.06-11.8,11.42-18.33,14.24"/>
            <path class="cls-4" d="m201.49,31.82c-.7-1.46-.91.03-.91-1.7,0-6.19,5.01-11.2,11.2-11.2s11.2,5.01,11.2,11.2c0,1.79.62.2-.13,1.7"/>
          </g>
          <g id="regalo_abajo" data-name="regalo abajo">
            <path class="cls-4" d="m267.21,56.41v62.9c0,3.38-2.74,6.12-6.12,6.12h-98.62c-3.38,0-6.12-2.74-6.12-6.12v-63.33"/>
            <polyline class="cls-4" points="223.99 56.41 223.99 125.43 199.56 125.43 199.56 56.32"/>
          </g>
          <g id="regalo_tapa" data-name="regalo tapa">
            <rect class="cls-2" x="149.95" y="31.7" width="123.65" height="24.28" rx="7.4" ry="7.4"/>
            <rect class="cls-4" x="195.8" y="31.82" width="31.95" height="24.16"/>
          </g>
        </g>
        <g id="Estrellas">
          <path class="cls-1" d="m116.2,91.9c-12.98,1.02-13.71,1.84-14.6,16.58-.9-14.73-1.62-15.56-14.6-16.58,12.98-1.02,13.71-1.84,14.6-16.58.9,14.73,1.62,15.56,14.6,16.58Z"/>
          <path class="cls-1" d="m135.5,32.14c-10.84.75-11.44,1.35-12.19,12.19-.75-10.84-1.35-11.44-12.19-12.19,10.84-.75,11.44-1.35,12.19-12.19.75,10.84,1.35,11.44,12.19,12.19Z"/>
          <path class="cls-1" d="m300.65,140.18c-11.35.85-11.98,1.53-12.77,13.78-.78-12.25-1.42-12.94-12.77-13.78,11.35-.85,11.98-1.53,12.77-13.78.78,12.25,1.42,12.94,12.77,13.78Z"/>
          <path class="cls-1" d="m317.49,57.07c-12.87,1-13.59,1.82-14.48,16.34-.89-14.53-1.61-15.34-14.48-16.34,12.87-1,13.59-1.82,14.48-16.34.89,14.53,1.61,15.34,14.48,16.34Z"/>
        </g>
        <g id="mano_completa" data-name="mano completa">
          <path id="Mano_dedos" data-name="Mano dedos" class="cls-2" d="m156.98,187.82l41.71,23.15c8.29,4.12,19.01,1.57,22.9-6.27l1.09-2.2c3.9-7.84.33-17.53-7.96-21.65l-43.54-21.64-31.61-14.73c-2.1-.89-4.21-1.75-6.33-2.59-.99-.39-1.95-.73-2.96-1.03s-2.24-.82-3.26-.82c-3.5-.71-7.2-.85-10.69,0s-7.15,1.94-10.7,3.08c-4.72,1.51-9.35,3.26-13.85,5.26-4.99,2.21-9.86,4.67-14.56,7.45-4.69,2.77-9.09,5.63-12.9,9.55.39-.25.6-.74.53-1.2-.37.69-.42,1.5-.46,2.29-.38,7.53-.09,15.03-.09,22.57,0,5.48,0,10.97,0,16.45,0,5.14,0,10.29,0,15.43,0,3.77,0,7.54,0,11.3,0,1.36,0,2.71,0,4.07,0-.74,14.58-1.93,15.69-2.05,7.81-.85,15.68-2.12,23.57-1.4,7.44.68,13.46,3.88,19.67,7.56,8.23,4.88,16.3,10.35,25.01,14.48,8.49,4.04,17.99,6.25,27.54,6.23,14.09-.03,27.31-5.45,39.76-11.02,13.68-6.12,27.46-12.05,40.87-18.66,13.49-6.65,26.49-14.11,39.56-21.43,4.43-2.48,8.86-4.95,13.31-7.4,5.56-3.05,11.15-6.06,16.77-9.02,4.88-2.57,10.32-4.7,12.9-9.65,2.45-4.71,1.21-10.47-2.82-14.07-2.23-1.99-5.13-3.63-8.21-4.13-.32-.05-.65-.09-.97-.11-3.1-.2-6.13.99-8.95,2.04-5.41,2.03-10.95,3.77-16.47,5.51-18.3,5.76-36.51,11.65-54.79,17.48-4.67,1.49-15.95,4.6-20.62,6.09"/>
          <g id="manga">
            <rect class="cls-2" x="2.5" y="142.76" width="61.72" height="107.23" rx="10.42" ry="10.42"/>
            <circle class="cls-1" cx="18.46" cy="233.16" r="6.89"/>
          </g>
        </g>
      </g>
    </g>
  </g>
</svg>