<?xml version="1.0" encoding="UTF-8"?>
<svg id="Capa_2" data-name="Capa 2" xmlns="http://www.w3.org/2000/svg" viewBox="0 0 1533.62 1339.76">
  <defs>
    <style>
      .cls-1 {
        fill: #fff;
      }
    </style>
  </defs>
  <g id="Capa_7" data-name="Capa 7">
    <g id="Capa_2-2" data-name="Capa 2">
      <g>
        <g id="ILUSTRACIONES">
          <g>
            <path class="cls-1" d="m828.44,1213.11q-.17,63.64,63.32,63.32-63.64-.17-63.32,63.32.17-63.64-63.32-63.32,63.64.17,63.32-63.32Z"/>
            <g>
              <path class="cls-1" d="m802.03,569.01c4,1.21,6.77,1.06,10.31.51,1.97-22.45,10.04-43.81,12.77-66.4,1.87-15.5,10.56-28.69,20.9-40.29,6.26-7.02,15.18-8.87,24.06-8.14,7.04.58,10.65,5.81,10.38,12.95-.39,10.5-.81,21.01-1.76,31.46-1.07,11.79-.96,23.5.04,35.28.62,7.36.53,14.82-1.06,22.84,7.11-1.74,12.95-4.84,18.53-8.7,11.14-7.71,22.17-15.79,36.03-17.94,11.52-1.78,23.05-1.25,34.16,2.34,12.79,4.13,15.34,16.56,5.56,25.76-1.67,1.57-3.55,2.97-5.48,4.21-33.52,21.43-64.72,46.76-102.59,60.9-5.49,2.05-5.06,7.98-6.31,12.27-4.57,15.63-14.42,26.32-29.06,32.64-6.84,2.95-13.46,6.12-19.68,10.22-1.5.99-3.14,1.47-3.77,3.41-4.4,13.59-16.03,18.54-27.89,23.08-14.8,5.67-30,10.42-43.01,19.93-1.24.9-2.96,1.45-3.73,2.63-15.94,24.56-41.9,31.91-67.86,36.78-23.35,4.38-46.7,8.47-69.78,14.24-19.29,4.82-38.66,3.08-57.74-1.92-20.83-5.46-42.33-7.12-63.38-11.34-5.43-1.09-11.06-.12-15.93,1.69-30.86,11.43-63.14,16.88-95.16,23.59-63.3,13.27-123.43,36.08-182.94,60.91-35.36,14.75-71.82,26.85-106.01,44.38-8.88,4.55-17.7,9.21-26.59,13.73-2.37,1.2-4.87,3.38-7.92-.19.66-4.18,4.6-5.37,7.69-7.23,32.98-19.87,68.5-34.16,104.34-47.88,45.51-17.41,89.93-37.76,136.56-52.13,34.41-10.6,69.43-19.16,104.74-26.22,17.6-3.52,34.7-8.65,51.99-13.22,17.02-4.5,34.02-4.8,51.63-2.05,19.98,3.11,39.53,8.04,59.37,11.58,11.37,2.03,23.06,1.96,34.37-.98,26.51-6.87,53.56-10.79,80.45-15.65,15.48-2.8,29.69-9.52,42.8-18.09,9.7-6.35,14.03-15.61,12.32-27.62-3.04-21.32.35-42.45,3.75-63.34,6.59-40.42,2.43-67.63-17.68-103.39-5.38-9.57-11.15-9.82-16.5-.23-11.05,19.8-10.13,40.66-4.65,61.79,10.34,7.27,3.12,15.2.4,22.46-7.24,19.34-11.12,39.26-11.47,59.82-.22,12.79-.11,13.41-13.42,11.71-12.69-1.62-22.95,3.39-32.95,9.99-8.15,5.37-17.08,7.99-26.92,7.13-2.36-.2-4.98-.26-5.06-3.36-.07-2.71,2.32-3.12,4.4-3.22,12.42-.56,23.26-5.37,33.51-12.02,10.26-6.66,21.5-8.88,33.79-5.55,1.34-26.12,5.19-50.41,13.65-73.87,2.35-6.53-1.77-11.61-8.68-11.36-11.72.42-21.8,4.98-30.38,12.88-8.04,7.41-17.22,12.72-27.8,15.59-2.71.74-5.35,1.71-7.98-.27-.66-4.16,2.67-4.47,5.15-5.3,10.62-3.58,19.44-9.97,28.11-16.88,10.25-8.17,20.96-15.87,36.38-13.71-2.31-9.54-2.07-18.6-2.04-28.53-28.51-2.07-43.62-21.12-56.47-44.02-13.86,20.69-31.84,38.15-45.43,59.01-4.76,7.31-8.23,15.33-6.99,25.14,4-1.12,7.73-2.41,11.56-3.19,4.97-1.01,9.32.32,11.65,5.17,2.49,5.19-.36,8.76-4.3,11.78-7.86,6-15.14,5.42-23.61-2.21-15.8,9.74-34.06,10.9-51.94,13.87-18.65,3.09-35.59,10.88-51.5,20.97-2.8,1.78-5.61,3.55-8.44,5.29-1.53.94-2.95.77-4.02-.72-.91-1.26-.38-2.61.47-3.51,1.75-1.85,3.63-3.64,5.65-5.18,20.52-15.6,44.01-23.46,69.37-26.24,8.18-.9,16.16-2.62,23.97-5.12,9.41-3.01,15.54-6.82,15.29-19.48-.31-15.84,10.06-28.45,20.35-40.14,13.55-15.4,26.95-30.91,36.63-49.21,1.48-2.79,2.77-6.28,7.6-5.89,3.96,5.96-5.74,13.54,2.34,18.81,5.61-5.32,11.41-11.43,17.86-16.77,9.4-7.79,20.99-11.61,32.09-16.13,13.67-5.56,25.9-13.47,37.35-22.53,8.96-7.08,18.58-12.43,29.4-16.09,18.32-6.2,32.77-17.7,43.27-33.94,7.35-11.38,4.64-23.57-6.4-30.95-1.4-.94-2.79-.97-4.33-1.08-28.99-2.11-56.21,3.47-82.51,16.22-37.07,17.97-74.38,35.59-112.73,50.63-25.44,9.98-51.79,17.71-76.6,29.36-35.03,16.46-68.34,36.21-102.7,53.96-31.71,16.38-64.38,31.05-99.37,38-52.47,10.43-105.31,19.19-159.28,16.82-15.85-.7-31.69,1.47-47.4,4.02-2.96.48-7.43,2.52-8.41-2.21-.82-3.95,3.49-4.58,6.33-5.13,6.52-1.25,13.1-2.37,19.7-2.97,26.05-2.35,52.23-2.04,78.33-3.36,30.43-1.53,60.6-6.03,90.56-11.45,49.66-8.98,95.12-28.95,138.67-53.9,48.27-27.65,98.09-51.74,151.22-69.04,27.44-8.94,53.24-22.46,79.5-34.57,19.28-8.89,38.51-17.87,58.3-25.63,21.19-8.31,43.11-11.05,65.52-8.29,17.36,2.14,34.77,20.04,21.16,43.68-9.14,15.88-23.76,25.75-39.98,32.32-15.84,6.41-30.3,14.41-43.86,24.71-13.73,10.42-29.55,17.27-45.47,23.67-15.14,6.09-27.76,15.13-36.65,29.65,10.98,15.58,23.44,28.82,45.22,28.54,1.74-12.01,5.44-22.99,14.29-32.06,4.83-4.95,9.49-6.77,15.03-2.48,4.52,3.5,7.78,8.07,10.08,13.36,3.26,7.5,6.71,14.91,10.04,22.38,1.42,3.19,2.66,8.36,7,5.44,3.29-2.22,7.9-6.25,4.35-12.05-7.78-12.7-9.71-26.67-9.4-41.29.35-16.81,9.3-28.79,21.35-38.93,4.77-4.02,10.96-1.34,16.01,5.66,8.08,11.21,12.52,24.73,21.99,35.02,8.75,9.51,12.8,20.76,13.29,33.44.22,5.83.04,11.67.04,17.18Zm-21.33,93.81c-.7-1.04-1.7-1.84-1.74-2.69-.71-15.1-1.68-30.26,8.1-43.42,2.29-3.08,4.28-6.37,6.52-9.48,1.22-1.7,2.01-3.34,1.95-5.59-.53-18.65-.98-37.3-1.29-55.95-.05-3.26-1-6.08-2.78-8.61-10.62-15.01-19.61-31.04-29-46.82-.52-.87-1.25-1.62-1.93-2.38-3.24-3.62-5.76-4.08-10.16-.42-19,15.82-15.24,52.09-5.12,66.44,3.61-1.04,4.87-6.96,10.12-5.04.47,4.06-2.15,6.41-3.85,9.15-8.87,14.3-16.61,28.33-14.78,46.72,2.24,22.43-1.97,44.83-4.97,67.17-2.05,15.21-3.54,30.69.21,46.4,10.88-8.15,22.75-13.51,34.87-18.3,7.61-3.01,15.47-5.42,22.28-10.12,6-4.15,10.33-8.97,11.7-16.98,3.31-19.41-2.13-37.87-4.3-58.95-5.7,8.84-10.58,15.68-12.4,24.81,4.51-.42,9.18-1.52,10.03,4.18.71,4.77-1.94,7.11-6.72,7.15-3.11.03-3.41,2.6-3.99,4.75-.7,2.62-.7,5.47-2.73,8Zm27.29,7.17c6.41-3.23,11.53-6.1,16.87-8.45,15.93-7.01,25.39-19.15,29.22-35.94,3.46-15.17,7.18-30.28,10.36-45.5,2.86-13.7,8.13-27.19,6.4-41.46-2.64-21.79-1.39-43.45.59-65.15.34-3.76,1.58-8.06-2.56-10.41-3.88-2.2-8.15-1.08-11.71,1.06-17.04,10.22-23.3,27.02-25.58,45.31-1.04,8.28-.43,16.8-3.19,24.86-3.63,10.63-6.94,21.36-7.48,32.63-.69,14.18-6,26.24-15.46,36.61-1.72,1.88-1.99,3.92-1.84,6.34,1.23,19.84,5.34,39.43,4.38,60.1Zm56.53-53.9c20.61-10.09,41.05-17.87,58.25-31.53,12.44-9.88,25.09-19.4,39.04-27.08,1.76-.97,3.37-2.37,4.75-3.85,5.08-5.45,4.3-10.27-2.55-13.27-15.46-6.78-30.9-6.41-45.7,1.83-9.8,5.46-19.12,11.74-25.05,21.77-4.76-4.1-17.17-1.28-18.34,3.85-3.58,15.64-6.79,31.37-10.41,48.28Zm-61.41-39.73c-1.12,5.99-.88,11.58.9,18.41,4.2-6.55,7.87-11.6,7.99-18.41h-8.89Z"/>
              <path class="cls-1" d="m1478.88,131.76c-1.45,3.9-4.13,3.64-7.53,2.98-32.22-6.2-63.12-16.68-93.47-28.86-33.71-13.54-65.32-31.79-99.18-45-24.51-9.57-48.6-20.14-72.86-30.27-20.3-8.48-40.87-12.19-62.59-12.79-32.58-.9-65.14.6-97.7.32-28.45-.25-56.89-1.69-85.31-3.14-27.91-1.42-55.76-3.83-83.67-5.23-25-1.25-49.14,1.49-72.59,12.18-24.94,11.37-52.2,15.92-78.96,21.49-29.12,6.06-56.31,16.8-81.53,32.52-2.8,1.75-5.56,3.73-7.88,6.06-28.56,28.82-57.76,56.75-92.93,77.78-18.82,11.25-32.58,27.93-44.01,46.48-3.92,6.37,1.34,14.77,9.71,15.53,7.96.72,15.98.37,23.64-1.8,14.78-4.19,29.87-8.57,42.28-17.63,31.34-22.87,65.83-40.6,98.03-62.02,6.61-4.4,12.88-9.3,19.27-14,2.52-1.86,4.71-3.92,7.91-.65,1.73,1.77,4.33.37,6.6,0,23.02-3.72,45.13-11,67.6-16.92,14.09-3.71,28.72-4.95,43.33-5.29,3.49-.08,6.25-1,9.17-2.94,16.82-11.12,34.89-9.71,53.11-4.52,3.61,1.03,7.46,3.24,7.08,7.98-.35,4.46-4.51,5.33-7.82,6.27-6.26,1.77-12.72.8-19.09.41-5.11-.31-10.27-.4-15.31-1.2-14.54-2.29-26.49,2.48-36.62,12.69-14.69,14.79-33.03,22.88-52.64,28.63-10.36,3.04-20.16,7.39-29.18,13.26-14.19,9.24-29.04,17.22-44.34,24.44-8.27,3.91-14.92,9.64-19.75,17.65-6.96,11.55-7.25,22.48,1.03,33.52,7.65,10.2,18.68,8.73,28.69,7.49,12.16-1.5,23.68-6.64,34.51-12.32,15.5-8.13,31.78-13.88,48.35-19.15,10.49-3.33,20.38-7.97,29.57-14.29,17.25-11.87,36.89-17.2,57.47-19.48,5.1-.57,10.02-1.62,14.92-3.72-3.38-6.06-2.68-11.15,3.38-14.51,4.7-2.61,9.55-2.4,13.16,2.01,3.69,4.51.67,7.92-3.2,11.21,11.87,5.01,24.08,6.57,35.96,9.3,52.39,12.03,105.68,16.54,159.23,18.61,7.25.28,14.29,1.57,21.07,3.75,4.15,1.34,6.52.48,7.82-3.25,5.25-15.06,16.44-24.14,30.12-31.12,6.66-3.4,11.59-9.22,16.86-14.48,1.54-1.54,2.35-4.16,5.63-3.97,3.13,3.01.37,5.49-1.35,7.62-6.18,7.64-13.63,13.81-22.3,18.51-7.22,3.91-14.39,7.96-17.96,16.15,4.95-.17,11.49-3.51,13.82,2.41,3.24,8.25-5.6,9.86-10.81,14.09,23.63,6.97,45.35,16.92,64.32,31.81,30.45,23.89,61.44,47.08,90.88,72.28,20.68,17.7,44.22,31.28,68.4,43.92,31.04,16.23,63.14,30.64,91.96,50.91,10.69,7.52,21.38,15.03,32.07,22.53,1.46,1.03,2.96,2,3.99,2.69-2.57,6.69-6.17,4.53-9.15,2.66-8.68-5.43-17.48-10.76-25.71-16.83-28.82-21.25-60.66-37.45-92.59-52.94-36.61-17.76-69.4-40.39-100.03-66.74-22.95-19.74-47.19-37.89-71.55-55.81-18.22-13.4-38.38-23.36-60.58-28.66-1.83-.43-4.13-2.41-5.57.05-8.25,14-22.45,11.3-35.01,12.13-12.48.83-25.01.23-37.55,1.49-20.59,2.07-40.99,5.18-61.39,8.47-7.79,1.26-15.7,2.24-23.58,2.41-16.41.35-32.85.51-49.26-.02-40.6-1.3-79.28,6.16-115.83,24.12-10.14,4.98-20.75,8.61-31.99,10.25-4.73.69-7.89,3.45-11.32,6.86-20.08,19.97-43.3,34.02-72.41,36.09-4.91.35-9.06-1.22-12.67-4.44-7.61-6.79-8.26-13.15-1.23-20.52,4.93-5.17,10.37-10,16.17-14.18,11.25-8.11,19.8-18.37,26.67-30.78-5.59.09-8.87,2.16-12.49,6.64-10.3,12.73-21.6,24.68-32.87,36.59-10.72,11.32-24.7,13-39.11,10.9-7.43-1.08-12.8-6.19-15.26-13.6-.96-2.89-1.38-5.95-2.24-9.83-11.62,9.62-24.54,15.17-39.09,16.86-8.75,1.02-16.21-.89-21.8-8.19-5.84-7.62-5.83-15.39-1.24-23.61,7.06-12.65,15.69-23.94,26.72-33.45,11.68-10.07,19.88-22.92,27.91-36.06-18.52,14.74-40.1,22.31-62.28,28.65-7.99,2.28-16.07,2.99-24.29,2.47-7.65-.49-14.27-3.48-17.43-10.63-3.59-8.12-3.07-15.71,3.01-23.53,16.88-21.7,36.52-39.78,60.14-54.15,23.77-14.45,44.18-33.7,63.4-53.48,28.12-28.93,62.59-43.71,100.75-52.08,27.96-6.13,55.7-13.12,83.31-20.66,3.19-.87,6.58-1.74,9.31-3.49,21.06-13.49,44.47-12.21,67.8-10.87,28.4,1.64,56.76,3.88,85.15,5.6,26.35,1.6,52.73,3.97,79.1,3.97,27.17,0,54.39-.07,81.54-1.01,43.99-1.53,83.94,12.18,123.44,29.09,61.77,26.44,121.49,57.67,185.22,79.51,12.75,4.37,25.66,8.48,39.15,10.21,2.57.33,5.02,1.07,6.37,3.61Zm-371.89,87.28c-1.19-2.39-2.64-2.7-4.17-3.11-16.03-4.35-32.57-4.05-48.87-4.44-47.32-1.13-93.64-8.49-139.61-19.3-16.93-3.98-33.8-13.38-51.97-3.99-2.18,1.13-4.93,1.22-7.44,1.62-16.02,2.52-31.73,6.27-45,16.04-9.21,6.78-19.17,11.69-29.87,15.33-18.13,6.17-36.34,12-53.13,21.62-6.69,3.83-13.35,5.62-16.99,14.42-5.51,13.3-16.1,23.48-27.68,32.38-6.56,5.05-13.06,10.45-17.01,17.83,4.31,5.55,8.39,9.25,15.83,8.07,26.55-4.21,47.55-17.65,64.95-37.54,3.87-4.43,6.77-11.26,14.89-6.54,1.01.59,2.97-.38,4.46-.74,7.73-1.84,15.12-4.64,22.25-8.14,35.38-17.38,73-23.71,112.13-23.81,25.09-.07,50.44,2.36,75.23-1.93,37.58-6.5,75.2-11.36,113.38-12.01,6.33-.11,13.15-1.62,18.6-5.77Zm-294.57-109.15c-15.67,2.45-30.83,4.26-45.25,9.2-19.14,6.56-38.53,11.75-58.56,14.73-5.96.89-12.55-1.25-17.87,2.86-23.79,18.38-50.03,32.84-76.03,47.67-2.98,1.7-4.93,3.92-6.6,6.99-10.56,19.48-23.39,37.21-40.1,52.02-8.9,7.89-15.46,17.66-21.03,28.16-3.05,5.75-2.3,10.64,1.71,15.52,3.95,4.81,8.55,6.71,14.86,5.42,13.35-2.75,24.84-8.77,35.38-17.39,6.36-5.2,10.52-12.98,18.01-16.47,12.58-5.86,20.38-16.91,30.12-25.87,1.29-1.19,1.47-2.32,1.29-4.03-2.27-22,9.72-35.69,27.46-45.39,15.22-8.32,31.39-14.84,46.06-24.27,9.7-6.24,20.24-11.13,31.36-13.92,23.12-5.8,40.76-20.38,59.18-35.23Zm-161.04,127.2c-7.86,11.08-14.99,20.34-25.48,25.6-8.82,4.43-12.25,12.42-14.02,20.65-1.75,8.13,1.65,14.91,8.34,15.46,9.05.74,18.21.24,26.03-4.51,16.26-9.89,25.31-27.21,40.52-38.91-13.64-3.6-28.52-1.34-35.39-18.29Zm187.11-133.5c6.39,0,12.78-.22,19.15.06,6.33.29,12.72,2.8,20.4-.94-14.33-4.49-27.12-5.09-39.55.88Z"/>
              <path class="cls-1" d="m521.32,616.05c-14.42-1.35-26.7-7.96-39.94-10.69-13.25-2.73-26.48-5.34-40.09-6.03-13.56-.68-27.13,2.76-42.1.86,20.07-17.22,110.38-5.13,122.14,15.86Z"/>
            </g>
            <path class="cls-1" d="m849.93,399.26c63.55-3.47,65.13-6.27,67.08-119.2,1.95,112.93,3.53,115.74,67.08,119.2-63.55,3.47-65.13,6.27-67.08,119.2-1.95-112.93-3.53-115.74-67.08-119.2Z"/>
            <path class="cls-1" d="m882.8,319.97c-49.3,3.4-52.06,6.16-55.46,55.46-3.4-49.3-6.16-52.06-55.46-55.46,49.3-3.4,52.06-6.16,55.46-55.46,3.4,49.3,6.16,52.06,55.46,55.46Z"/>
          </g>
        </g>
        <g id="TIPOGRAFIA">
          <g>
            <g>
              <path class="cls-1" d="m202.17,1274.77c8.1-4.36,13.09-11.42,17.45-21.39,10.8-26.79,20.56-51.3,29.08-73.11,14.95-36.97,29.91-75.39,31.57-80.17q.21-.21.21-.42h1.66l66.25,153.9c6.44,14.75,11.42,19.31,17.03,21.18v1.66c-10.8-.83-18.69-1.04-26.79-1.04s-16.41.21-28.04,1.04c-13.91,0-22.22-8.1-28.66-18.48-3.32-5.19-6.23-10.8-8.72-16.82-7.48-18.07-15.99-32.61-31.57-32.61h-2.08c-7.27,18.9-14.12,35.51-16.82,42.78-1.25,3.12-1.66,6.02-1.66,8.72,0,1.87.42,4.36,1.25,7.48,1.04,3.12,4.36,5.4,10.38,7.27v1.66c-6.02-.62-10.18-.83-14.12-.83-5.19,0-9.76.21-16.41.83v-1.66h0Zm38.42-68.54h.83c4.98,0,9.55,1.25,13.71,3.74,9.14,6.02,14.54,17.65,19.73,29.28,7.27,15.99,15.37,34.89,35.72,34.89,9.14,0,10.38-7.48,10.38-11.01,0-2.28-.42-6.23-2.7-12.05-.21-.42-.62-1.25-.62-1.45-38.42-89.09-39.05-90.76-49.02-114.02-3.32,7.89-11.01,28.04-19.52,49.22-2.91,7.27-5.81,14.34-8.51,21.4Z"/>
              <path class="cls-1" d="m391.37,1252.76v-135.41c-3.12-5.61-5.4-9.76-7.06-12.88-1.04-1.87-1.87-3.33-2.7-4.78h30.53c3.32,6.23,18.69,33.85,36.14,65.21l17.86,32.19c11.84,21.6,23.26,42.37,31.57,57.11v-130.84c0-15.16-1.66-21.6-16.41-21.6v-2.08c16.61.62,20.56.62,35.1,0v2.08c-14.75,0-16.41,4.98-16.41,21.81v134.79c3.11,5.61,5.61,9.97,7.27,13.09,1.04,1.87,1.87,3.53,2.7,4.98h-30.32c-9.97-18.28-61.89-111.94-85.98-155.14v132.09c0,15.99,1.66,20.98,16.41,20.98v2.08c-14.54-.62-18.48-.62-35.1,0v-2.08c14.75,0,16.41-6.44,16.41-21.6Z"/>
              <path class="cls-1" d="m547.76,1250.68v-128.97c0-12.05-1.45-19.94-13.71-19.94v-2.08h74.77c56.7,0,74.97,54,74.97,85.77,0,37.18-18.28,90.97-74.97,90.97h-77.47v-2.08c14.12,0,16.41-7.68,16.41-23.67Zm26.58,23.47h26.37c42.78,0,56.49-43.2,56.49-88.68s-16.41-83.49-59.4-83.49h-23.47v172.17h0Z"/>
              <path class="cls-1" d="m1045.36,1274.77c8.1-4.36,13.09-11.42,17.45-21.39,10.8-26.79,20.56-51.3,29.08-73.11,14.95-36.97,29.91-75.39,31.57-80.17q.21-.21.21-.42h1.66l66.25,153.9c6.44,14.75,11.42,19.31,17.03,21.18v1.66c-10.8-.83-18.69-1.04-26.79-1.04s-16.41.21-28.04,1.04c-13.91,0-22.22-8.1-28.66-18.48-3.32-5.19-6.23-10.8-8.72-16.82-7.48-18.07-15.99-32.61-31.57-32.61h-2.08c-7.27,18.9-14.12,35.51-16.82,42.78-1.25,3.12-1.66,6.02-1.66,8.72,0,1.87.42,4.36,1.25,7.48,1.04,3.12,4.36,5.4,10.38,7.27v1.66c-6.02-.62-10.18-.83-14.12-.83-5.19,0-9.76.21-16.41.83v-1.66h0Zm38.42-68.54h.83c4.98,0,9.55,1.25,13.71,3.74,9.14,6.02,14.54,17.65,19.73,29.28,7.27,15.99,15.37,34.89,35.72,34.89,9.14,0,10.38-7.48,10.38-11.01,0-2.28-.42-6.23-2.7-12.05-.21-.42-.62-1.25-.62-1.45-38.42-89.09-39.05-90.76-49.01-114.02-3.32,7.89-11.01,28.04-19.52,49.22-2.91,7.27-5.82,14.34-8.51,21.4Z"/>
              <path class="cls-1" d="m1234.56,1250.68v-128.97c0-12.05-1.45-19.94-13.71-19.94v-2.08h74.77c56.7,0,74.97,54,74.97,85.77,0,37.18-18.28,90.97-74.97,90.97h-77.47v-2.08c14.12,0,16.41-7.68,16.41-23.67Zm26.58,23.47h26.37c42.78,0,56.49-43.2,56.49-88.68s-16.4-83.49-59.4-83.49h-23.47v172.17h0Z"/>
              <path class="cls-1" d="m1385.75,1276.43v-2.08c14.12,0,16.41-7.69,16.41-23.68v-128.97c0-12.05-1.45-19.94-13.71-19.94v-2.08h138.11v.62l7.06,38.21-1.66.62c-20.56-28.45-36.55-37.18-75.81-37.18h-27.41v72.9h8.51c37.59,0,47.97-6.85,54.62-28.45h1.25v58.98h-1.25c-9.97-20.56-17.03-28.45-54.62-28.45h-8.51v97.2h22.43c38.01,0,59.81-8.31,81-39.46l1.45.42-7.06,41.33h-140.81Z"/>
            </g>
            <g>
              <path class="cls-1" d="m18.37,1257.11c.24-1.43.48-3.1.48-4.77v-153.65c0-13.84-1.67-22.91-15.75-22.91v-2.39c14.31.96,22.67,1.43,31.02,1.43,8.83,0,16.94-.48,31.01-1.43v2.39c-14.07,0-15.74,8.59-15.74,22.19v61.79c35.67-.32,71.34-.64,107.01-.97v-60.46c-.1-1.37-1.05-12.48-10.73-18.85-6.75-4.45-13.74-3.95-15.88-3.71v-2.39c14.55.72,24.34,1.19,34.83,1.19,7.87,0,15.99-.24,27.2-1.19v2.39c-14.08,0-15.75,8.59-15.75,22.19v151.26c0,16.94,3.34,24.81,19.09,24.81v2.39c-15.98-.72-25.05-1.19-33.64-1.19-9.54,0-18.37.48-34.83,1.19v-2.39c7.22-1.39,12.97-3.23,17.03-4.74,4.77-1.77,6.59-2.85,8.13-4.55,3.76-4.17,3.75-9.83,3.57-12.35.33-29.9.65-59.81.98-89.71-35.67-.18-71.34-.36-107.01-.55v87.08c0,16.94,3.34,24.81,19.09,24.81v2.39c-16.94-.72-25.77-.95-35.31-.95-8.59,0-17.66.24-33.16.95v-2.39c13.13,0,17.18-5.49,18.37-16.94Z"/>
              <path class="cls-1" d="m825.86,1249.23v-154.84l-8.83-21h33.16l74.92,177.51c-.48-2.62-.48-5.25-.48-8.11,0-1.91,0-4.06.24-6.2,2.15-20.76,14.31-38.17,26.96-56.54,15.27-23.14,32.21-47,35.31-81.6,0-13.36-1.67-22.67-15.75-22.67v-2.39c13.6.96,21.71,1.43,30.06,1.43,8.83,0,17.42-.48,31.97-1.43v2.39c-5.31.3-8.94,2.03-11.07,3.34-9.22,5.7-13.67,18.23-11.77,31.9.33,45.94.65,91.88.98,137.81.08,1.53.91,14.26,11.52,21.21,5.44,3.57,10.98,3.99,13.68,4v2.39c-11.21-.72-22.43-.95-32.69-.95s-19.09.24-25.53.48c-3.82.24-7.16.24-10.26.48v-2.39c16.94,0,18.85-9.78,18.85-27.2v-132.18c-7.63,33.16-26.72,57.74-41.99,79.93-5.25,7.4-9.54,15.03-12.65,22.91-3.1,7.87-4.77,14.07-5.01,18.61-.24,4.53-.48,7.16-.48,7.87,0,7.87,2.15,16.23,5.97,25.29l2.86,7.16c-4.99.12-9.98.23-14.96.35-16.36-35.51-28.21-62.43-36.08-80.61-10.1-23.35-23.79-45.02-34.13-68.26-1.08-2.43-4.27-9.72-11.05-17.23-4.07-4.51-8.06-7.58-10.73-9.43-.14,49.32-.28,98.64-.42,147.97,0,20.04,1.67,24.81,18.85,24.81v2.39c-16.7-.72-21.23-.72-40.32,0v-2.39c16.94,0,18.85-7.39,18.85-24.81Z"/>
            </g>
          </g>
        </g>
      </g>
    </g>
  </g>
</svg>