<?xml version="1.0" encoding="UTF-8"?>
<svg id="Capa_2" data-name="Capa 2" xmlns="http://www.w3.org/2000/svg" viewBox="0 0 305.75 263.61">
  <defs>
    <style>
      .cls-1 {
        stroke-linecap: round;
        stroke-linejoin: round;
      }

      .cls-1, .cls-2 {
        fill: none;
        stroke: #7c434a;
        stroke-width: 5px;
      }

      .cls-2 {
        stroke-miterlimit: 10;
      }

      .cls-3 {
        fill: #7c434a;
      }
    </style>
  </defs>
  <g id="POST_1" data-name="POST 1">
    <g id="tienda">
      <g id="Techo_completo" data-name="Techo completo">
        <g id="Techo">
          <path class="cls-2" d="m88.53,54.1c-.15,1.13-.23,2.29-.23,3.46,0,13.17,9.62,23.84,21.49,23.84s21.49-10.67,21.49-23.84c0-1.18-.08-2.33-.23-3.46h-42.53Z"/>
          <path class="cls-2" d="m45.63,54.1c-.15,1.13-.23,2.29-.23,3.46,0,13.17,9.62,23.84,21.49,23.84s21.49-10.67,21.49-23.84c0-1.18-.08-2.33-.23-3.46h-42.53Z"/>
          <path class="cls-2" d="m2.73,54.1c-.15,1.13-.23,2.29-.23,3.46,0,13.17,9.62,23.84,21.49,23.84s21.49-10.67,21.49-23.84c0-1.18-.08-2.33-.23-3.46H2.73Z"/>
          <path class="cls-2" d="m131.52,54.08c-.15,1.13-.23,2.29-.23,3.46,0,13.17,9.62,23.84,21.49,23.84s21.49-10.67,21.49-23.84c0-1.18-.08-2.33-.23-3.46h-42.53Z"/>
          <path class="cls-2" d="m174.51,54.06c-.15,1.13-.23,2.29-.23,3.46,0,13.17,9.62,23.84,21.49,23.84s21.5-10.67,21.5-23.84c0-1.18-.08-2.33-.23-3.46h-42.53Z"/>
          <path class="cls-2" d="m217.5,54.04c-.15,1.13-.23,2.29-.23,3.46,0,13.17,9.62,23.84,21.49,23.84s21.5-10.67,21.5-23.84c0-1.18-.08-2.33-.23-3.46h-42.53Z"/>
          <path class="cls-2" d="m303.02,54.02h-42.53c-.15,1.13-.23,2.29-.23,3.46,0,13.17,9.62,23.84,21.49,23.84s21.49-10.67,21.49-23.84c0-1.18-.08-2.33-.23-3.46Z"/>
          <path class="cls-1" d="m303.25,57.15v-1.95c0-1.64-.28-3.27-.83-4.84l-14.85-42.37c-1.14-3.26-4.54-5.49-8.38-5.49H26.66c-3.84,0-7.24,2.22-8.38,5.49L3.51,50.37c-.52,1.49-.79,3.04-.82,4.6l-.08,5.1"/>
        </g>
        <line class="cls-2" x1="45.26" y1="54.1" x2="61.96" y2="2.55"/>
        <line class="cls-2" x1="88.16" y1="54.1" x2="98.33" y2="2.55"/>
        <line class="cls-2" x1="131.52" y1="54.08" x2="133.08" y2="2.86"/>
        <line class="cls-2" x1="174.51" y1="54.06" x2="173.84" y2="3.77"/>
        <line class="cls-2" x1="217.85" y1="52.73" x2="208.99" y2="3.77"/>
        <line class="cls-2" x1="260.03" y1="54.04" x2="244.45" y2="2.5"/>
      </g>
      <g id="ciimientos">
        <polyline id="Pared" class="cls-2" points="281.84 79.07 281.84 238.36 21.38 238.36 21.38 79.07"/>
        <path id="Base" class="cls-1" d="m11.41,238.36h280.4c4.14,0,7.5,3.36,7.5,7.5v15.25H3.91v-15.25c0-4.14,3.36-7.5,7.5-7.5Z"/>
        <rect id="Ventana" class="cls-2" x="54.41" y="120.36" width="86.2" height="68.47" rx="9.17" ry="9.17"/>
        <g id="Puerta">
          <path class="cls-2" d="m174.62,122.81h69.1c4.85,0,8.78,3.93,8.78,8.78v106.77h-86.66v-106.77c0-4.85,3.93-8.78,8.78-8.78Z"/>
          <rect class="cls-3" x="229.66" y="175.52" width="9.1" height="18.34" rx="3.06" ry="3.06"/>
        </g>
      </g>
    </g>
  </g>
</svg>