<?xml version="1.0" encoding="UTF-8"?>
<svg id="Capa_2" data-name="Capa 2" xmlns="http://www.w3.org/2000/svg" viewBox="0 0 266.46 263.61">
  <defs>
    <style>
      .cls-1 {
        fill: none;
        stroke: #7c434a;
        stroke-linecap: round;
        stroke-linejoin: round;
        stroke-width: 5px;
      }

      .cls-2 {
        fill: #7c434a;
        stroke: #fff;
        stroke-miterlimit: 10;
      }
    </style>
  </defs>
  <g id="Logos">
    <g id="Whatsapp">
      <g>
        <path id="círculo_exterior" data-name="círculo exterior" class="cls-1" d="m133.23,2.5C61.03,2.5,2.5,60.24,2.5,131.47c0,25.09,7.27,48.5,19.84,68.31l-17.74,53.59c-1.53,4.62,2.89,8.99,7.5,7.41l54.07-18.6c19.61,11.59,42.55,18.25,67.07,18.25,72.2,0,130.73-57.74,130.73-128.97S205.43,2.5,133.23,2.5Z"/>
        <path id="teléfono" class="cls-2" d="m97.63,73.9c1.2.95,1.86,2.42,2.48,3.82,3.6,8.22,7.38,16.36,11.09,24.54.57,1.26,1.15,2.55,1.26,3.93.24,2.99-2.66,5.55-4.54,7.53-1.5,1.58-2.87,3.27-4.35,4.86-1.63,1.75-2.64,3.81-1.66,6.19.45,1.09,1.19,2.04,1.92,2.98,8.62,11.04,19.03,26.44,32.32,32.25,7.07,3.09,16.45,2.34,21.11-3.82,2.76-3.64,4.49-9.31,9.05-9.52,1.79-.08,3.46.82,5.03,1.69,6.85,3.8,13.7,7.61,20.55,11.41,1.72.96,3.5,1.96,4.65,3.57,2.63,3.68.92,8.87-1.58,12.63-15.21,22.87-42.52,15.69-62.98,5.77-6.95-3.37-13.64-7.28-19.87-11.87-2.69-1.98-5.3-4.09-7.79-6.32-4.03-3.61-7.78-7.54-11.28-11.66-4.44-5.26-8.45-10.93-12.29-16.62-8.5-12.6-15.34-27.82-10.63-43.23.64-2.09,1.5-4.11,2.6-6,2.49-4.26,5.93-8.09,10.23-10.57,3.72-2.15,10.72-4.56,14.61-1.59.02.01.03.03.05.04Z"/>
        <path id="círculo_interior" data-name="círculo interior" class="cls-1" d="m133.23,24.1c-60.29,0-109.17,48.22-109.17,107.7,0,20.95,6.07,40.51,16.57,57.05l-11.11,39.88c-1.28,3.86,2.42,7.51,6.26,6.19l41.45-10.65c16.38,9.68,35.53,15.24,56.01,15.24,60.29,0,109.17-48.22,109.17-107.7S193.53,24.1,133.23,24.1Z"/>
      </g>
    </g>
  </g>
</svg>