<svg width="360" height="306" viewBox="0 0 360 306" fill="none" xmlns="http://www.w3.org/2000/svg">
<path d="M188.266 129.882C189.205 130.158 189.856 130.124 190.687 129.998C191.149 124.874 193.043 119.998 193.684 114.842C194.123 111.304 196.163 108.294 198.59 105.646C200.06 104.043 202.154 103.621 204.238 103.788C205.891 103.92 206.738 105.114 206.675 106.744C206.583 109.14 206.485 111.539 206.262 113.925C206.01 116.616 206.036 119.289 206.271 121.977C206.416 123.657 206.395 125.36 206.022 127.191C207.691 126.794 209.062 126.086 210.372 125.205C212.987 123.445 215.576 121.601 218.829 121.11C221.534 120.704 224.24 120.825 226.848 121.644C229.851 122.587 230.449 125.424 228.153 127.524C227.761 127.882 227.32 128.202 226.867 128.485C218.999 133.376 211.675 139.158 202.785 142.386C201.496 142.853 201.597 144.207 201.304 145.186C200.231 148.754 197.919 151.194 194.482 152.636C192.877 153.31 191.323 154.033 189.863 154.969C189.51 155.195 189.125 155.305 188.978 155.748C187.945 158.85 185.215 159.979 182.431 161.016C178.957 162.31 175.388 163.394 172.335 165.565C172.043 165.77 171.64 165.896 171.459 166.165C167.717 171.771 161.623 173.449 155.529 174.56C150.048 175.56 144.567 176.494 139.149 177.811C134.621 178.911 130.074 178.514 125.595 177.372C120.706 176.126 115.659 175.747 110.718 174.784C109.443 174.535 108.121 174.757 106.978 175.17C99.7341 177.779 92.1566 179.023 84.6403 180.554C69.7812 183.583 55.6663 188.79 41.6969 194.457C33.3965 197.824 24.8378 200.586 16.8121 204.587C14.7276 205.626 12.6572 206.689 10.5703 207.721C10.014 207.995 9.42714 208.493 8.71118 207.678C8.86611 206.724 9.79099 206.452 10.5163 206.027C18.2581 201.492 26.596 198.23 35.0091 195.099C45.6922 191.125 56.1193 186.48 67.0653 183.2C75.1427 180.78 83.3633 178.826 91.6519 177.215C95.7834 176.411 99.7974 175.24 103.856 174.197C107.851 173.17 111.842 173.102 115.976 173.729C120.666 174.439 125.255 175.565 129.912 176.373C132.581 176.836 135.325 176.82 137.98 176.149C144.203 174.581 150.553 173.686 156.865 172.577C160.499 171.938 163.835 170.404 166.912 168.448C169.189 166.998 170.205 164.885 169.804 162.143C169.09 157.277 169.886 152.454 170.684 147.686C172.231 138.46 171.255 132.249 166.534 124.086C165.271 121.902 163.917 121.845 162.661 124.034C160.067 128.553 160.283 133.315 161.569 138.138C163.997 139.797 162.302 141.607 161.663 143.264C159.964 147.679 159.053 152.226 158.971 156.919C158.919 159.838 158.945 159.979 155.821 159.591C152.842 159.222 150.433 160.365 148.086 161.872C146.173 163.097 144.076 163.695 141.767 163.499C141.213 163.453 140.598 163.44 140.579 162.732C140.562 162.114 141.123 162.02 141.612 161.997C144.527 161.869 147.072 160.771 149.478 159.254C151.886 157.733 154.525 157.227 157.41 157.987C157.724 152.025 158.628 146.48 160.614 141.126C161.166 139.635 160.198 138.476 158.576 138.533C155.825 138.629 153.459 139.669 151.445 141.473C149.558 143.164 147.403 144.376 144.919 145.031C144.283 145.2 143.663 145.421 143.046 144.969C142.891 144.02 143.673 143.949 144.255 143.76C146.748 142.943 148.818 141.484 150.853 139.907C153.26 138.042 155.774 136.284 159.393 136.777C158.851 134.6 158.907 132.532 158.914 130.265C152.222 129.793 148.675 125.445 145.659 120.218C142.405 124.94 138.185 128.925 134.994 133.687C133.877 135.355 133.062 137.186 133.354 139.425C134.293 139.169 135.168 138.875 136.067 138.697C137.234 138.466 138.255 138.77 138.802 139.877C139.386 141.062 138.717 141.877 137.792 142.566C135.947 143.935 134.239 143.803 132.25 142.061C128.541 144.285 124.255 144.549 120.058 145.227C115.68 145.933 111.703 147.711 107.969 150.014C107.311 150.42 106.652 150.824 105.988 151.221C105.628 151.436 105.295 151.397 105.044 151.057C104.83 150.769 104.955 150.461 105.154 150.256C105.565 149.834 106.006 149.425 106.48 149.073C111.297 145.513 116.811 143.719 122.764 143.084C124.685 142.879 126.558 142.486 128.391 141.915C130.6 141.228 132.039 140.359 131.98 137.469C131.908 133.853 134.342 130.975 136.757 128.307C139.938 124.792 143.084 121.252 145.356 117.074C145.703 116.438 146.006 115.641 147.14 115.73C148.069 117.09 145.792 118.821 147.689 120.024C149.006 118.809 150.368 117.415 151.882 116.196C154.088 114.418 156.809 113.546 159.414 112.514C162.623 111.245 165.494 109.439 168.182 107.371C170.285 105.755 172.543 104.534 175.083 103.699C179.384 102.284 182.776 99.6587 185.241 95.9518C186.966 93.3543 186.33 90.5719 183.738 88.8874C183.41 88.6728 183.083 88.6659 182.722 88.6408C175.917 88.1592 169.527 89.4329 163.353 92.3431C154.652 96.4448 145.893 100.467 136.891 103.9C130.919 106.178 124.734 107.942 118.91 110.601C110.687 114.358 102.868 118.866 94.8022 122.918C87.3586 126.657 79.6896 130.005 71.476 131.591C59.1592 133.972 46.7555 135.972 34.0866 135.431C30.366 135.271 26.6477 135.766 22.9599 136.348C22.2651 136.458 21.2158 136.923 20.9857 135.844C20.7933 134.942 21.805 134.798 22.4717 134.673C24.0022 134.388 25.5468 134.132 27.096 133.995C33.211 133.459 39.3565 133.529 45.4832 133.228C52.6264 132.879 59.7085 131.852 66.7413 130.614C78.3985 128.565 89.0698 124.007 99.2927 118.312C110.624 112 122.318 106.502 134.79 102.553C141.231 100.512 147.288 97.4263 153.452 94.6622C157.978 92.633 162.492 90.5833 167.137 88.812C172.112 86.9152 177.257 86.2898 182.518 86.9198C186.593 87.4083 190.679 91.494 187.485 96.8899C185.339 100.515 181.907 102.767 178.1 104.267C174.381 105.73 170.987 107.556 167.804 109.907C164.581 112.286 160.867 113.849 157.13 115.31C153.576 116.7 150.614 118.764 148.527 122.078C151.105 125.634 154.029 128.656 159.142 128.592C159.551 125.851 160.419 123.345 162.497 121.274C163.63 120.144 164.724 119.729 166.025 120.708C167.086 121.507 167.851 122.55 168.391 123.758C169.156 125.47 169.966 127.161 170.748 128.866C171.081 129.594 171.372 130.774 172.391 130.108C173.163 129.601 174.245 128.681 173.412 127.357C171.586 124.458 171.133 121.27 171.205 117.933C171.288 114.096 173.389 111.361 176.217 109.047C177.337 108.129 178.79 108.741 179.975 110.339C181.872 112.897 182.914 115.983 185.137 118.332C187.191 120.503 188.142 123.071 188.257 125.965C188.309 127.296 188.266 128.629 188.266 129.886V129.882ZM183.259 151.294C183.095 151.057 182.86 150.874 182.851 150.68C182.684 147.234 182.457 143.773 184.752 140.77C185.29 140.067 185.757 139.316 186.283 138.606C186.569 138.218 186.755 137.843 186.741 137.33C186.616 133.073 186.51 128.816 186.438 124.559C186.426 123.815 186.203 123.171 185.785 122.594C183.292 119.168 181.182 115.509 178.978 111.907C178.856 111.708 178.684 111.537 178.525 111.364C177.764 110.537 177.173 110.432 176.14 111.268C171.68 114.879 172.562 123.157 174.938 126.433C175.785 126.196 176.081 124.844 177.313 125.282C177.424 126.209 176.809 126.746 176.41 127.371C174.327 130.635 172.511 133.837 172.94 138.035C173.466 143.155 172.478 148.268 171.773 153.367C171.292 156.839 170.942 160.372 171.823 163.958C174.377 162.098 177.163 160.874 180.008 159.781C181.795 159.094 183.64 158.544 185.238 157.471C186.647 156.524 187.663 155.423 187.985 153.595C188.762 149.165 187.485 144.951 186.975 140.14C185.637 142.157 184.492 143.719 184.064 145.803C185.123 145.707 186.219 145.456 186.419 146.757C186.586 147.845 185.964 148.38 184.841 148.389C184.111 148.396 184.041 148.982 183.905 149.473C183.741 150.071 183.741 150.721 183.264 151.299L183.259 151.294ZM189.665 152.931C191.17 152.194 192.372 151.539 193.625 151.002C197.365 149.402 199.586 146.631 200.485 142.799C201.297 139.336 202.17 135.887 202.916 132.413C203.588 129.286 204.825 126.207 204.419 122.95C203.799 117.976 204.093 113.032 204.557 108.079C204.637 107.221 204.928 106.239 203.956 105.703C203.046 105.201 202.043 105.456 201.208 105.945C197.208 108.278 195.738 112.112 195.203 116.287C194.959 118.177 195.102 120.122 194.454 121.961C193.602 124.388 192.825 126.837 192.698 129.409C192.536 132.646 191.29 135.399 189.069 137.766C188.665 138.195 188.602 138.66 188.637 139.213C188.926 143.741 189.891 148.213 189.665 152.931ZM202.935 140.628C207.773 138.325 212.571 136.549 216.609 133.431C219.529 131.176 222.499 129.003 225.773 127.25C226.186 127.029 226.564 126.709 226.888 126.371C228.081 125.127 227.898 124.027 226.29 123.342C222.66 121.795 219.036 121.879 215.562 123.76C213.261 125.006 211.074 126.44 209.682 128.729C208.564 127.793 205.651 128.437 205.377 129.608C204.536 133.178 203.783 136.768 202.933 140.628H202.935ZM188.52 131.559C188.257 132.927 188.313 134.203 188.731 135.762C189.717 134.267 190.579 133.114 190.607 131.559H188.52Z" fill="white"/>
<path d="M347.15 30.0777C346.81 30.9679 346.181 30.9085 345.383 30.7579C337.819 29.3427 330.566 26.9506 323.442 24.1705C315.528 21.0799 308.108 16.9143 300.16 13.899C294.407 11.7146 288.752 9.30198 283.057 6.98976C278.292 5.05417 273.463 4.20734 268.364 4.07039C260.717 3.86496 253.074 4.20734 245.43 4.14343C238.752 4.08637 232.076 3.75768 225.405 3.42671C218.853 3.10259 212.316 2.5525 205.764 2.23294C199.895 1.94762 194.229 2.57304 188.724 5.01308C182.87 7.60833 176.471 8.64689 170.189 9.91826C163.353 11.3015 156.971 13.7529 151.051 17.3411C150.393 17.7405 149.746 18.1925 149.201 18.7243C142.497 25.3026 135.642 31.6777 127.387 36.4779C122.969 39.0458 119.739 42.8531 117.056 47.0872C116.135 48.5412 117.37 50.4585 119.335 50.632C121.203 50.7963 123.086 50.7164 124.884 50.2211C128.354 49.2647 131.896 48.265 134.809 46.197C142.166 40.9768 150.262 36.9299 157.821 32.0407C159.372 31.0363 160.844 29.9179 162.344 28.8451C162.936 28.4206 163.45 27.9503 164.201 28.6967C164.607 29.1007 165.217 28.7812 165.75 28.6967C171.154 27.8476 176.344 26.1859 181.619 24.8347C184.926 23.9879 188.36 23.7048 191.79 23.6272C192.609 23.609 193.257 23.399 193.942 22.9561C197.891 20.418 202.133 20.7398 206.409 21.9244C207.257 22.1595 208.161 22.664 208.071 23.7459C207.989 24.7639 207.013 24.9625 206.236 25.1771C204.766 25.5811 203.25 25.3597 201.755 25.2706C200.555 25.1999 199.344 25.1793 198.161 24.9967C194.748 24.474 191.942 25.5628 189.565 27.8933C186.116 31.2692 181.811 33.1157 177.208 34.4282C174.776 35.1221 172.475 36.115 170.358 37.4549C167.027 39.5639 163.541 41.3854 159.95 43.0334C158.008 43.9259 156.447 45.2338 155.314 47.0621C153.68 49.6984 153.612 52.1932 155.555 54.7132C157.351 57.0414 159.94 56.7058 162.29 56.4228C165.144 56.0804 167.849 54.9072 170.391 53.6107C174.029 51.755 177.851 50.4425 181.741 49.2396C184.203 48.4795 186.525 47.4204 188.682 45.9779C192.731 43.2685 197.341 42.0519 202.172 41.5315C203.37 41.4014 204.525 41.1617 205.675 40.6824C204.881 39.2992 205.046 38.1373 206.468 37.3704C207.571 36.7747 208.71 36.8226 209.557 37.8292C210.424 38.8586 209.715 39.637 208.806 40.3879C211.593 41.5315 214.459 41.8876 217.247 42.5107C229.545 45.2566 242.055 46.286 254.625 46.7585C256.327 46.8224 257.98 47.1169 259.571 47.6145C260.545 47.9203 261.102 47.724 261.407 46.8726C262.639 43.4351 265.266 41.3626 268.477 39.7694C270.041 38.9933 271.198 37.6649 272.435 36.4642C272.796 36.1127 272.986 35.5147 273.756 35.5581C274.491 36.2451 273.843 36.8112 273.44 37.2974C271.989 39.0412 270.24 40.4496 268.205 41.5223C266.51 42.4148 264.827 43.3393 263.989 45.2087C265.151 45.1698 266.686 44.4075 267.233 45.7587C267.994 47.6418 265.918 48.0093 264.695 48.9748C270.242 50.5658 275.341 52.8369 279.794 56.2356C286.942 61.6886 294.216 66.9818 301.127 72.7338C305.982 76.7739 311.507 79.8736 317.183 82.7588C324.47 86.4633 332.005 89.7525 338.77 94.3792C341.279 96.0957 343.789 97.8098 346.298 99.5218C346.641 99.7569 346.993 99.9783 347.235 100.136C346.632 101.663 345.786 101.17 345.087 100.743C343.049 99.5035 340.984 98.2869 339.052 96.9014C332.287 92.051 324.812 88.3533 317.317 84.8176C308.723 80.7638 301.026 75.5984 293.836 69.5839C288.449 65.0782 282.759 60.9354 277.04 56.8451C272.763 53.7864 268.031 51.513 262.82 50.3033C262.39 50.2051 261.85 49.7532 261.512 50.3147C259.576 53.5103 256.242 52.894 253.294 53.0834C250.365 53.2729 247.423 53.1359 244.48 53.4235C239.646 53.896 234.858 54.6059 230.069 55.3568C228.24 55.6444 226.384 55.8681 224.534 55.9069C220.682 55.9868 216.823 56.0233 212.97 55.9024C203.44 55.6056 194.36 57.3084 185.78 61.4079C183.4 62.5446 180.91 63.3731 178.271 63.7475C177.161 63.905 176.419 64.5349 175.614 65.3133C170.9 69.8715 165.45 73.0785 158.616 73.551C157.464 73.6309 156.49 73.2725 155.642 72.5375C153.856 70.9877 153.703 69.536 155.353 67.8538C156.511 66.6737 157.788 65.5712 159.149 64.6171C161.79 62.766 163.797 60.4241 165.41 57.5914C164.098 57.612 163.328 58.0845 162.478 59.1071C160.06 62.0127 157.407 64.7404 154.762 67.4589C152.245 70.0427 148.964 70.4262 145.581 69.9468C143.837 69.7003 142.577 68.534 141.999 66.8426C141.774 66.1829 141.675 65.4845 141.473 64.5989C138.746 66.7947 135.713 68.0615 132.297 68.4472C130.243 68.68 128.492 68.2441 127.18 66.5778C125.809 64.8385 125.811 63.065 126.889 61.1887C128.546 58.3013 130.572 55.7243 133.161 53.5536C135.903 51.2551 137.828 48.322 139.713 45.3228C135.365 48.6872 130.3 50.4151 125.093 51.8623C123.218 52.3827 121.321 52.5447 119.391 52.4261C117.595 52.3142 116.042 51.6317 115.3 49.9997C114.457 48.1463 114.579 46.4138 116.006 44.6289C119.969 39.6758 124.579 35.5489 130.124 32.2689C135.703 28.9706 140.494 24.5768 145.006 20.0619C151.607 13.4585 159.698 10.0849 168.656 8.1744C175.22 6.7752 181.731 5.1797 188.212 3.45867C188.961 3.26009 189.757 3.0615 190.398 2.66206C195.341 -0.41709 200.837 -0.124924 206.313 0.180936C212.98 0.555273 219.637 1.06656 226.301 1.45916C232.487 1.82437 238.679 2.36533 244.869 2.36533C251.247 2.36533 257.637 2.34935 264.01 2.13479C274.336 1.78556 283.714 4.91493 292.986 8.77471C307.486 14.8098 321.505 21.9381 336.465 26.9232C339.458 27.9207 342.488 28.8588 345.655 29.2537C346.258 29.329 346.833 29.4979 347.15 30.0777ZM259.853 49.9997C259.573 49.4542 259.233 49.3834 258.874 49.2898C255.111 48.2969 251.228 48.3654 247.402 48.2764C236.294 48.0185 225.421 46.3385 214.63 43.8711C210.656 42.9626 206.696 40.817 202.431 42.9604C201.919 43.2183 201.273 43.2388 200.684 43.3301C196.924 43.9053 193.236 44.7613 190.121 46.9913C187.959 48.5389 185.621 49.6596 183.109 50.4905C178.853 51.8988 174.579 53.2295 170.637 55.4253C169.067 56.2995 167.504 56.7081 166.649 58.7167C165.356 61.7525 162.87 64.0761 160.152 66.1076C158.612 67.2603 157.086 68.4929 156.159 70.1774C157.17 71.4442 158.128 72.2887 159.875 72.0194C166.107 71.0584 171.036 67.9907 175.121 63.4507C176.029 62.4396 176.71 60.8806 178.616 61.958C178.853 62.0926 179.313 61.8712 179.663 61.789C181.478 61.3691 183.212 60.7299 184.886 59.931C193.191 55.964 202.022 54.5191 211.208 54.4963C217.097 54.4803 223.048 55.035 228.867 54.0558C237.689 52.5721 246.52 51.4628 255.482 51.3145C256.968 51.2893 258.569 50.9447 259.848 49.9974L259.853 49.9997ZM190.705 25.0858C187.027 25.645 183.468 26.0581 180.083 27.1857C175.59 28.683 171.039 29.8677 166.337 30.5479C164.938 30.751 163.391 30.2626 162.142 31.2007C156.558 35.396 150.398 38.6966 144.295 42.0816C143.595 42.4696 143.138 42.9763 142.746 43.6771C140.267 48.1235 137.255 52.1704 133.332 55.5509C131.243 57.3518 129.703 59.5818 128.396 61.9785C127.68 63.291 127.856 64.4071 128.797 65.521C129.725 66.6189 130.804 67.0526 132.286 66.7581C135.419 66.1304 138.116 64.7563 140.591 62.7888C142.084 61.6019 143.06 59.8261 144.818 59.0294C147.771 57.6919 149.602 55.1697 151.889 53.1245C152.192 52.8529 152.234 52.595 152.192 52.2046C151.659 47.1831 154.473 44.0583 158.637 41.8442C162.21 39.9451 166.006 38.4569 169.45 36.3045C171.727 34.8801 174.201 33.764 176.811 33.1272C182.238 31.8033 186.379 28.4753 190.703 25.0858H190.705ZM152.903 54.1197C151.058 56.6488 149.384 58.7624 146.922 59.963C144.851 60.9742 144.046 62.7979 143.631 64.6765C143.22 66.5322 144.018 68.0797 145.588 68.2053C147.713 68.3742 149.863 68.2601 151.699 67.1758C155.515 64.9184 157.64 60.965 161.21 58.2945C158.008 57.4728 154.515 57.9886 152.903 54.1197ZM196.825 23.6478C198.325 23.6478 199.825 23.5975 201.32 23.6615C202.806 23.7276 204.306 24.3006 206.109 23.4469C202.745 22.422 199.743 22.2851 196.825 23.6478Z" fill="white"/>
<path d="M122.372 140.619C118.987 140.311 116.105 138.802 112.997 138.179C109.887 137.556 106.781 136.96 103.586 136.803C100.403 136.647 97.2177 137.433 93.7036 136.999C98.4148 133.068 119.614 135.828 122.375 140.619H122.372Z" fill="white"/>
<path d="M199.51 91.1358C214.428 90.3438 214.799 89.7047 215.257 63.9279C215.715 89.7047 216.085 90.3461 231.003 91.1358C216.085 91.9279 215.715 92.567 215.257 118.344C214.799 92.567 214.428 91.9256 199.51 91.1358Z" fill="white"/>
<path d="M207.226 73.0375C195.654 73.8135 195.006 74.4435 194.208 85.6964C193.409 74.4435 192.762 73.8135 181.189 73.0375C192.762 72.2614 193.409 71.6314 194.208 60.3785C195.006 71.6314 195.654 72.2614 207.226 73.0375Z" fill="white"/>
<path d="M194.466 276.9C194.439 286.584 199.394 291.402 209.33 291.353C199.37 291.328 194.416 296.145 194.466 305.806C194.492 296.122 189.538 291.305 179.602 291.353C189.561 291.379 194.516 286.562 194.466 276.9Z" fill="white"/>
<path d="M47.4551 290.974C49.3565 289.979 50.5279 288.368 51.5513 286.092C54.0865 279.977 56.3776 274.383 58.3776 269.404C61.887 260.966 65.3987 252.196 65.7883 251.105C65.8212 251.073 65.8376 251.041 65.8376 251.009H66.2273L81.7789 286.138C83.2906 289.504 84.4596 290.545 85.7765 290.972V291.351C83.2413 291.162 81.3892 291.114 79.4878 291.114C77.5864 291.114 75.6357 291.162 72.9057 291.351C69.6404 291.351 67.6897 289.502 66.178 287.133C65.3987 285.948 64.7156 284.668 64.1311 283.294C62.3752 279.169 60.3776 275.85 56.7203 275.85H56.2321C54.5255 280.164 52.9175 283.956 52.2837 285.615C51.9903 286.327 51.8941 286.989 51.8941 287.605C51.8941 288.032 51.9927 288.601 52.1875 289.313C52.4316 290.025 53.211 290.545 54.6241 290.972V291.351C53.211 291.209 52.2344 291.162 51.3096 291.162C50.0913 291.162 49.0185 291.209 47.4575 291.351V290.972L47.4551 290.974ZM56.4738 275.33H56.6687C57.8377 275.33 58.9105 275.615 59.887 276.183C62.0325 277.558 63.3001 280.212 64.5184 282.867C66.225 286.517 68.1264 290.831 72.9033 290.831C75.0488 290.831 75.3399 289.123 75.3399 288.317C75.3399 287.797 75.2413 286.895 74.7061 285.567C74.6568 285.471 74.5606 285.282 74.5606 285.236C65.5419 264.901 65.394 264.52 63.0536 259.211C62.2743 261.011 60.4691 265.611 58.4715 270.445C57.7884 272.105 57.1076 273.718 56.4738 275.33Z" fill="white"/>
<path d="M91.8679 285.95V255.043C91.1355 253.762 90.6003 252.815 90.2107 252.103C89.9665 251.676 89.7717 251.343 89.5769 251.012H96.7435C97.5228 252.434 101.131 258.738 105.227 265.896L109.419 273.244C112.199 278.174 114.88 282.915 116.83 286.279V256.414C116.83 252.954 116.441 251.484 112.978 251.484V251.009C116.877 251.151 117.804 251.151 121.218 251.009V251.484C117.755 251.484 117.365 252.621 117.365 256.462V287.229C118.095 288.509 118.682 289.504 119.072 290.217C119.316 290.643 119.511 291.022 119.706 291.353H112.588C110.248 287.181 98.0604 265.802 92.4055 255.942V286.092C92.4055 289.742 92.7952 290.881 96.2576 290.881V291.356C92.8444 291.214 91.9196 291.214 88.0182 291.356V290.881C91.4806 290.881 91.8703 289.411 91.8703 285.95H91.8679Z" fill="white"/>
<path d="M128.579 285.476V256.038C128.579 253.287 128.239 251.486 125.361 251.486V251.012H142.912C156.222 251.012 160.511 263.337 160.511 270.589C160.511 279.075 156.22 291.353 142.912 291.353H124.727V290.878C128.041 290.878 128.579 289.125 128.579 285.476ZM134.818 290.833H141.009C151.051 290.833 154.269 280.972 154.269 270.591C154.269 260.21 150.417 251.534 140.325 251.534H134.816V290.833H134.818Z" fill="white"/>
<path d="M245.386 290.974C247.287 289.979 248.459 288.368 249.482 286.092C252.017 279.977 254.308 274.383 256.308 269.404C259.818 260.966 263.329 252.196 263.719 251.105C263.752 251.073 263.768 251.041 263.768 251.009H264.158L279.71 286.138C281.221 289.504 282.39 290.545 283.707 290.972V291.351C281.172 291.162 279.32 291.114 277.418 291.114C275.517 291.114 273.566 291.162 270.836 291.351C267.571 291.351 265.62 289.502 264.109 287.133C263.329 285.948 262.646 284.668 262.062 283.294C260.306 279.169 258.308 275.85 254.651 275.85H254.163C252.456 280.164 250.848 283.956 250.214 285.615C249.921 286.327 249.825 286.989 249.825 287.605C249.825 288.032 249.923 288.6 250.118 289.313C250.362 290.025 251.142 290.545 252.555 290.972V291.351C251.142 291.209 250.165 291.161 249.24 291.161C248.022 291.161 246.949 291.209 245.388 291.351V290.972L245.386 290.974ZM254.405 275.33H254.599C255.768 275.33 256.841 275.615 257.818 276.183C259.963 277.558 261.231 280.212 262.449 282.867C264.156 286.517 266.057 290.831 270.834 290.831C272.98 290.831 273.271 289.123 273.271 288.317C273.271 287.797 273.172 286.895 272.637 285.567C272.587 285.471 272.491 285.282 272.491 285.236C263.473 264.901 263.325 264.52 260.987 259.21C260.207 261.011 258.402 265.611 256.405 270.445C255.721 272.105 255.038 273.718 254.407 275.33H254.405Z" fill="white"/>
<path d="M289.799 285.476V256.038C289.799 253.287 289.458 251.486 286.58 251.486V251.012H304.132C317.442 251.012 321.73 263.337 321.73 270.589C321.73 279.075 317.439 291.353 304.132 291.353H285.946V290.878C289.261 290.878 289.799 289.125 289.799 285.476ZM296.038 290.833H302.228C312.27 290.833 315.489 280.972 315.489 270.591C315.489 260.21 311.639 251.534 301.545 251.534H296.036V290.833H296.038Z" fill="white"/>
<path d="M325.289 291.353V290.878C328.603 290.878 329.141 289.123 329.141 285.473V256.035C329.141 253.285 328.801 251.484 325.923 251.484V251.009H358.343V251.151L360 259.872L359.61 260.014C354.784 253.52 351.031 251.527 341.815 251.527H335.38V268.167H337.378C346.202 268.167 348.639 266.604 350.2 261.673H350.493V275.136H350.2C347.859 270.443 346.202 268.642 337.378 268.642H335.38V290.828H340.646C349.568 290.828 354.685 288.931 359.66 281.821L360 281.917L358.343 291.351H325.289V291.353Z" fill="white"/>
<path d="M4.30983 286.944C4.36617 286.617 4.42251 286.236 4.42251 285.855V250.784C4.42251 247.625 4.03049 245.554 0.725347 245.554V245.009C4.08448 245.228 6.04691 245.335 8.00699 245.335C10.0797 245.335 11.9835 245.226 15.2863 245.009V245.554C11.9835 245.554 11.5915 247.515 11.5915 250.619V264.723C19.9647 264.65 28.3378 264.577 36.711 264.502V250.701C36.6876 250.389 36.4646 247.853 34.1923 246.399C32.6078 245.383 30.9669 245.497 30.4646 245.552V245.006C33.8801 245.171 36.1782 245.278 38.6406 245.278C40.488 245.278 42.3941 245.223 45.0255 245.006V245.552C41.7204 245.552 41.3284 247.513 41.3284 250.617V285.143C41.3284 289.009 42.1124 290.806 45.8096 290.806V291.351C42.0584 291.187 39.9293 291.08 37.9129 291.08C35.6735 291.08 33.6007 291.189 29.7369 291.351V290.806C31.4317 290.488 32.7815 290.068 33.7345 289.724C34.8542 289.32 35.2815 289.073 35.643 288.685C36.5256 287.733 36.5232 286.441 36.481 285.866C36.5585 279.041 36.6336 272.214 36.711 265.39C28.3378 265.348 19.9647 265.307 11.5915 265.264V285.14C11.5915 289.007 12.3755 290.803 16.0727 290.803V291.349C12.0962 291.185 10.0234 291.132 7.78399 291.132C5.76757 291.132 3.63847 291.187 0 291.349V290.803C3.08214 290.803 4.03284 289.55 4.31218 286.937L4.30983 286.944Z" fill="white"/>
<path d="M193.86 285.145V249.802L191.787 245.009H199.571L217.158 285.526C217.046 284.928 217.046 284.328 217.046 283.675C217.046 283.239 217.046 282.748 217.102 282.26C217.607 277.521 220.461 273.547 223.43 269.354C227.015 264.072 230.991 258.626 231.719 250.729C231.719 247.679 231.327 245.554 228.022 245.554V245.009C231.214 245.228 233.118 245.335 235.078 245.335C237.151 245.335 239.167 245.226 242.583 245.009V245.554C241.336 245.623 240.484 246.018 239.984 246.317C237.82 247.618 236.775 250.478 237.221 253.598C237.299 264.084 237.374 274.57 237.452 285.054C237.47 285.403 237.665 288.309 240.156 289.895C241.433 290.71 242.733 290.806 243.367 290.808V291.353C240.736 291.189 238.102 291.137 235.693 291.137C233.285 291.137 231.212 291.191 229.7 291.246C228.804 291.301 228.02 291.301 227.292 291.356V290.81C231.268 290.81 231.717 288.578 231.717 284.602V254.431C229.926 262 225.445 267.61 221.86 272.675C220.628 274.364 219.621 276.106 218.891 277.905C218.163 279.701 217.771 281.116 217.715 282.152C217.658 283.186 217.602 283.787 217.602 283.949C217.602 285.745 218.107 287.653 219.003 289.721L219.675 291.356C218.503 291.383 217.332 291.408 216.163 291.436C212.323 283.33 209.541 277.186 207.693 273.036C205.323 267.706 202.109 262.76 199.682 257.455C199.428 256.901 198.679 255.237 197.088 253.523C196.133 252.493 195.196 251.792 194.569 251.37C194.536 262.628 194.503 273.885 194.471 285.145C194.471 289.719 194.863 290.808 198.895 290.808V291.353C194.975 291.189 193.912 291.189 189.431 291.353V290.808C193.407 290.808 193.856 289.121 193.856 285.145H193.86Z" fill="white"/>
</svg>
