<?xml version="1.0" encoding="utf-8"?>
<!-- Generator: Adobe Illustrator 27.5.0, SVG Export Plug-In . SVG Version: 6.00 Build 0)  -->
<svg version="1.1" id="Capa_1" xmlns="http://www.w3.org/2000/svg" xmlns:xlink="http://www.w3.org/1999/xlink" x="0px" y="0px"
	 viewBox="0 0 360 210" style="enable-background:new 0 0 360 210;" xml:space="preserve">
<style type="text/css">
	.st0{fill:#FFFFFF;}
</style>
<path class="st0" d="M188.3,129.9c0.9,0.3,1.6,0.2,2.4,0.1c0.5-5.1,2.4-10,3-15.2c0.4-3.5,2.5-6.5,4.9-9.2c1.5-1.6,3.6-2,5.6-1.9
	c1.7,0.1,2.5,1.3,2.4,3c-0.1,2.4-0.2,4.8-0.4,7.2c-0.3,2.7-0.2,5.4,0,8.1c0.1,1.7,0.1,3.4-0.2,5.2c1.7-0.4,3-1.1,4.3-2
	c2.6-1.8,5.2-3.6,8.5-4.1c2.7-0.4,5.4-0.3,8,0.5c3,0.9,3.6,3.8,1.3,5.9c-0.4,0.4-0.8,0.7-1.3,1c-7.9,4.9-15.2,10.7-24.1,13.9
	c-1.3,0.5-1.2,1.8-1.5,2.8c-1.1,3.6-3.4,6-6.8,7.4c-1.6,0.7-3.2,1.4-4.6,2.3c-0.4,0.2-0.7,0.3-0.9,0.8c-1,3.1-3.8,4.2-6.5,5.3
	c-3.5,1.3-7,2.4-10.1,4.5c-0.3,0.2-0.7,0.3-0.9,0.6c-3.7,5.6-9.8,7.3-15.9,8.4c-5.5,1-11,1.9-16.4,3.3c-4.5,1.1-9.1,0.7-13.6-0.4
	c-4.9-1.2-9.9-1.6-14.9-2.6c-1.3-0.2-2.6,0-3.7,0.4c-7.2,2.6-14.8,3.9-22.3,5.4c-14.9,3-29,8.2-42.9,13.9
	c-8.3,3.4-16.9,6.1-24.9,10.1c-2.1,1-4.2,2.1-6.2,3.1c-0.6,0.3-1.1,0.8-1.9,0c0.2-1,1.1-1.2,1.8-1.7c7.7-4.5,16.1-7.8,24.5-10.9
	c10.7-4,21.1-8.6,32.1-11.9c8.1-2.4,16.3-4.4,24.6-6c4.1-0.8,8.1-2,12.2-3c4-1,8-1.1,12.1-0.5c4.7,0.7,9.3,1.8,13.9,2.6
	c2.7,0.5,5.4,0.4,8.1-0.2c6.2-1.6,12.6-2.5,18.9-3.6c3.6-0.6,7-2.2,10-4.1c2.3-1.4,3.3-3.6,2.9-6.3c-0.7-4.9,0.1-9.7,0.9-14.5
	c1.5-9.2,0.6-15.4-4.2-23.6c-1.3-2.2-2.6-2.2-3.9-0.1c-2.6,4.5-2.4,9.3-1.1,14.1c2.4,1.7,0.7,3.5,0.1,5.1c-1.7,4.4-2.6,9-2.7,13.7
	c-0.1,2.9,0,3.1-3.1,2.7c-3-0.4-5.4,0.8-7.7,2.3c-1.9,1.2-4,1.8-6.3,1.6c-0.6,0-1.2-0.1-1.2-0.8c0-0.6,0.5-0.7,1-0.7
	c2.9-0.1,5.5-1.2,7.9-2.7c2.4-1.5,5-2,7.9-1.3c0.3-6,1.2-11.5,3.2-16.9c0.6-1.5-0.4-2.7-2-2.6c-2.8,0.1-5.1,1.1-7.1,2.9
	c-1.9,1.7-4,2.9-6.5,3.6c-0.6,0.2-1.3,0.4-1.9-0.1c-0.2-0.9,0.6-1,1.2-1.2c2.5-0.8,4.6-2.3,6.6-3.9c2.4-1.9,4.9-3.6,8.5-3.1
	c-0.5-2.2-0.5-4.2-0.5-6.5c-6.7-0.5-10.2-4.8-13.3-10c-3.3,4.7-7.5,8.7-10.7,13.5c-1.1,1.7-1.9,3.5-1.6,5.7c0.9-0.3,1.8-0.6,2.7-0.7
	c1.2-0.2,2.2,0.1,2.7,1.2c0.6,1.2-0.1,2-1,2.7c-1.8,1.4-3.6,1.2-5.5-0.5c-3.7,2.2-8,2.5-12.2,3.2c-4.4,0.7-8.4,2.5-12.1,4.8
	c-0.7,0.4-1.3,0.8-2,1.2c-0.4,0.2-0.7,0.2-0.9-0.2c-0.2-0.3-0.1-0.6,0.1-0.8c0.4-0.4,0.9-0.8,1.3-1.2c4.8-3.6,10.3-5.4,16.3-6
	c1.9-0.2,3.8-0.6,5.6-1.2c2.2-0.7,3.6-1.6,3.6-4.4c-0.1-3.6,2.4-6.5,4.8-9.2c3.2-3.5,6.3-7.1,8.6-11.2c0.3-0.6,0.6-1.4,1.8-1.3
	c0.9,1.4-1.3,3.1,0.5,4.3c1.3-1.2,2.7-2.6,4.2-3.8c2.2-1.8,4.9-2.7,7.5-3.7c3.2-1.3,6.1-3.1,8.8-5.1c2.1-1.6,4.4-2.8,6.9-3.7
	c4.3-1.4,7.7-4,10.2-7.7c1.7-2.6,1.1-5.4-1.5-7.1c-0.3-0.2-0.7-0.2-1-0.2c-6.8-0.5-13.2,0.8-19.4,3.7c-8.7,4.1-17.5,8.1-26.5,11.6
	c-6,2.3-12.2,4-18,6.7c-8.2,3.8-16,8.3-24.1,12.3c-7.4,3.7-15.1,7.1-23.3,8.7c-12.3,2.4-24.7,4.4-37.4,3.8
	c-3.7-0.2-7.4,0.3-11.1,0.9c-0.7,0.1-1.7,0.6-2-0.5c-0.2-0.9,0.8-1,1.5-1.2c1.5-0.3,3.1-0.5,4.6-0.7c6.1-0.5,12.3-0.5,18.4-0.8
	c7.1-0.3,14.2-1.4,21.3-2.6c11.7-2,22.3-6.6,32.6-12.3c11.3-6.3,23-11.8,35.5-15.8c6.4-2,12.5-5.1,18.7-7.9c4.5-2,9-4.1,13.7-5.9
	c5-1.9,10.1-2.5,15.4-1.9c4.1,0.5,8.2,4.6,5,10c-2.1,3.6-5.6,5.9-9.4,7.4c-3.7,1.5-7.1,3.3-10.3,5.6c-3.2,2.4-6.9,3.9-10.7,5.4
	c-3.6,1.4-6.5,3.5-8.6,6.8c2.6,3.6,5.5,6.6,10.6,6.5c0.4-2.7,1.3-5.2,3.4-7.3c1.1-1.1,2.2-1.5,3.5-0.6c1.1,0.8,1.8,1.8,2.4,3.1
	c0.8,1.7,1.6,3.4,2.4,5.1c0.3,0.7,0.6,1.9,1.6,1.2c0.8-0.5,1.9-1.4,1-2.8c-1.8-2.9-2.3-6.1-2.2-9.4c0.1-3.8,2.2-6.6,5-8.9
	c1.1-0.9,2.6-0.3,3.8,1.3c1.9,2.6,2.9,5.6,5.2,8c2.1,2.2,3,4.7,3.1,7.6C188.3,127.3,188.3,128.6,188.3,129.9L188.3,129.9z
	 M183.3,151.3c-0.2-0.2-0.4-0.4-0.4-0.6c-0.2-3.4-0.4-6.9,1.9-9.9c0.5-0.7,1-1.5,1.5-2.2c0.3-0.4,0.5-0.8,0.5-1.3
	c-0.1-4.3-0.2-8.5-0.3-12.8c0-0.7-0.2-1.4-0.7-2c-2.5-3.4-4.6-7.1-6.8-10.7c-0.1-0.2-0.3-0.4-0.5-0.5c-0.8-0.8-1.4-0.9-2.4-0.1
	c-4.5,3.6-3.6,11.9-1.2,15.2c0.8-0.2,1.1-1.6,2.4-1.2c0.1,0.9-0.5,1.5-0.9,2.1c-2.1,3.3-3.9,6.5-3.5,10.7c0.5,5.1-0.5,10.2-1.2,15.3
	c-0.5,3.5-0.8,7,0.1,10.6c2.6-1.9,5.3-3.1,8.2-4.2c1.8-0.7,3.6-1.2,5.2-2.3c1.4-0.9,2.4-2,2.7-3.9c0.8-4.4-0.5-8.6-1-13.5
	c-1.3,2-2.5,3.6-2.9,5.7c1.1-0.1,2.2-0.3,2.4,1c0.2,1.1-0.5,1.6-1.6,1.6c-0.7,0-0.8,0.6-0.9,1.1
	C183.7,150.1,183.7,150.7,183.3,151.3L183.3,151.3z M189.7,152.9c1.5-0.7,2.7-1.4,4-1.9c3.7-1.6,6-4.4,6.9-8.2
	c0.8-3.5,1.7-6.9,2.4-10.4c0.7-3.1,1.9-6.2,1.5-9.5c-0.6-5-0.3-9.9,0.1-14.9c0.1-0.9,0.4-1.8-0.6-2.4c-0.9-0.5-1.9-0.2-2.7,0.2
	c-4,2.3-5.5,6.2-6,10.3c-0.2,1.9-0.1,3.8-0.7,5.7c-0.9,2.4-1.6,4.9-1.8,7.4c-0.2,3.2-1.4,6-3.6,8.4c-0.4,0.4-0.5,0.9-0.4,1.4
	C188.9,143.7,189.9,148.2,189.7,152.9z M202.9,140.6c4.8-2.3,9.6-4.1,13.7-7.2c2.9-2.3,5.9-4.4,9.2-6.2c0.4-0.2,0.8-0.5,1.1-0.9
	c1.2-1.2,1-2.3-0.6-3c-3.6-1.5-7.3-1.5-10.7,0.4c-2.3,1.2-4.5,2.7-5.9,5c-1.1-0.9-4-0.3-4.3,0.9
	C204.5,133.2,203.8,136.8,202.9,140.6L202.9,140.6z M188.5,131.6c-0.3,1.4-0.2,2.6,0.2,4.2c1-1.5,1.8-2.6,1.9-4.2H188.5z"/>
<path class="st0" d="M347.1,30.1c-0.3,0.9-1,0.8-1.8,0.7c-7.6-1.4-14.8-3.8-21.9-6.6c-7.9-3.1-15.3-7.3-23.3-10.3
	c-5.8-2.2-11.4-4.6-17.1-6.9c-4.8-1.9-9.6-2.8-14.7-2.9c-7.6-0.2-15.3,0.1-22.9,0.1c-6.7-0.1-13.4-0.4-20-0.7
	c-6.6-0.3-13.1-0.9-19.6-1.2c-5.9-0.3-11.5,0.3-17,2.8c-5.9,2.6-12.3,3.6-18.5,4.9c-6.8,1.4-13.2,3.8-19.1,7.4
	c-0.7,0.4-1.3,0.9-1.8,1.4c-6.7,6.6-13.6,13-21.8,17.8c-4.4,2.6-7.6,6.4-10.3,10.6c-0.9,1.5,0.3,3.4,2.3,3.5
	c1.9,0.2,3.8,0.1,5.5-0.4c3.5-1,7-2,9.9-4c7.4-5.2,15.5-9.3,23-14.2c1.6-1,3-2.1,4.5-3.2c0.6-0.4,1.1-0.9,1.9-0.1
	c0.4,0.4,1,0.1,1.5,0c5.4-0.8,10.6-2.5,15.9-3.9c3.3-0.8,6.7-1.1,10.2-1.2c0.8,0,1.5-0.2,2.2-0.7c3.9-2.5,8.2-2.2,12.5-1
	c0.8,0.2,1.8,0.7,1.7,1.8c-0.1,1-1.1,1.2-1.8,1.4c-1.5,0.4-3,0.2-4.5,0.1c-1.2-0.1-2.4-0.1-3.6-0.3c-3.4-0.5-6.2,0.6-8.6,2.9
	c-3.4,3.4-7.8,5.2-12.4,6.5c-2.4,0.7-4.7,1.7-6.8,3c-3.3,2.1-6.8,3.9-10.4,5.6c-1.9,0.9-3.5,2.2-4.6,4c-1.6,2.6-1.7,5.1,0.2,7.7
	c1.8,2.3,4.4,2,6.7,1.7c2.9-0.3,5.6-1.5,8.1-2.8c3.6-1.9,7.5-3.2,11.3-4.4c2.5-0.8,4.8-1.8,6.9-3.3c4-2.7,8.7-3.9,13.5-4.4
	c1.2-0.1,2.4-0.4,3.5-0.8c-0.8-1.4-0.6-2.5,0.8-3.3c1.1-0.6,2.2-0.5,3.1,0.5c0.9,1,0.2,1.8-0.8,2.6c2.8,1.1,5.7,1.5,8.4,2.1
	c12.3,2.7,24.8,3.8,37.4,4.2c1.7,0.1,3.4,0.4,4.9,0.9c1,0.3,1.5,0.1,1.8-0.7c1.2-3.4,3.9-5.5,7.1-7.1c1.6-0.8,2.7-2.1,4-3.3
	c0.4-0.4,0.6-0.9,1.3-0.9c0.7,0.7,0.1,1.3-0.3,1.7c-1.5,1.7-3.2,3.2-5.2,4.2c-1.7,0.9-3.4,1.8-4.2,3.7c1.2,0,2.7-0.8,3.2,0.6
	c0.8,1.9-1.3,2.3-2.5,3.2c5.5,1.6,10.6,3.9,15.1,7.3c7.1,5.5,14.4,10.7,21.3,16.5c4.9,4,10.4,7.1,16.1,10c7.3,3.7,14.8,7,21.6,11.6
	c2.5,1.7,5,3.4,7.5,5.1c0.3,0.2,0.7,0.5,0.9,0.6c-0.6,1.5-1.4,1-2.1,0.6c-2-1.2-4.1-2.5-6-3.8c-6.8-4.9-14.2-8.5-21.7-12.1
	c-8.6-4.1-16.3-9.2-23.5-15.2c-5.4-4.5-11.1-8.6-16.8-12.7c-4.3-3.1-9-5.3-14.2-6.5c-0.4-0.1-1-0.6-1.3,0c-1.9,3.2-5.3,2.6-8.2,2.8
	c-2.9,0.2-5.9,0.1-8.8,0.3c-4.8,0.5-9.6,1.2-14.4,1.9c-1.8,0.3-3.7,0.5-5.5,0.6c-3.9,0.1-7.7,0.1-11.6,0c-9.5-0.3-18.6,1.4-27.2,5.5
	c-2.4,1.1-4.9,2-7.5,2.3c-1.1,0.2-1.9,0.8-2.7,1.6c-4.7,4.6-10.2,7.8-17,8.2c-1.2,0.1-2.1-0.3-3-1c-1.8-1.5-1.9-3-0.3-4.7
	c1.2-1.2,2.4-2.3,3.8-3.2c2.6-1.9,4.6-4.2,6.3-7c-1.3,0-2.1,0.5-2.9,1.5c-2.4,2.9-5.1,5.6-7.7,8.4c-2.5,2.6-5.8,3-9.2,2.5
	c-1.7-0.2-3-1.4-3.6-3.1c-0.2-0.7-0.3-1.4-0.5-2.2c-2.7,2.2-5.8,3.5-9.2,3.8c-2.1,0.2-3.8-0.2-5.1-1.9c-1.4-1.7-1.4-3.5-0.3-5.4
	c1.7-2.9,3.7-5.5,6.3-7.6c2.7-2.3,4.7-5.2,6.6-8.2c-4.3,3.4-9.4,5.1-14.6,6.5c-1.9,0.5-3.8,0.7-5.7,0.6c-1.8-0.1-3.3-0.8-4.1-2.4
	c-0.8-1.9-0.7-3.6,0.7-5.4c4-5,8.6-9.1,14.1-12.4c5.6-3.3,10.4-7.7,14.9-12.2c6.6-6.6,14.7-10,23.7-11.9c6.6-1.4,13.1-3,19.6-4.7
	c0.7-0.2,1.5-0.4,2.2-0.8c4.9-3.1,10.4-2.8,15.9-2.5c6.7,0.4,13.3,0.9,20,1.3c6.2,0.4,12.4,0.9,18.6,0.9c6.4,0,12.8,0,19.1-0.2
	c10.3-0.3,19.7,2.8,29,6.6c14.5,6,28.5,13.2,43.5,18.1c3,1,6,1.9,9.2,2.3C346.3,29.3,346.8,29.5,347.1,30.1z M259.9,50
	c-0.3-0.5-0.6-0.6-1-0.7c-3.8-1-7.6-0.9-11.5-1c-11.1-0.3-22-1.9-32.8-4.4c-4-0.9-7.9-3.1-12.2-0.9c-0.5,0.3-1.2,0.3-1.7,0.4
	c-3.8,0.6-7.4,1.4-10.6,3.7c-2.2,1.5-4.5,2.7-7,3.5c-4.3,1.4-8.5,2.7-12.5,4.9c-1.6,0.9-3.1,1.3-4,3.3c-1.3,3-3.8,5.4-6.5,7.4
	c-1.5,1.2-3.1,2.4-4,4.1c1,1.3,2,2.1,3.7,1.8c6.2-1,11.2-4,15.2-8.6c0.9-1,1.6-2.6,3.5-1.5c0.2,0.1,0.7-0.1,1-0.2
	c1.8-0.4,3.5-1.1,5.2-1.9c8.3-4,17.1-5.4,26.3-5.4c5.9,0,11.8,0.5,17.7-0.4c8.8-1.5,17.7-2.6,26.6-2.7C257,51.3,258.6,50.9,259.9,50
	L259.9,50z M190.7,25.1c-3.7,0.6-7.2,1-10.6,2.1c-4.5,1.5-9,2.7-13.7,3.4c-1.4,0.2-2.9-0.3-4.2,0.7c-5.6,4.2-11.7,7.5-17.8,10.9
	c-0.7,0.4-1.2,0.9-1.5,1.6c-2.5,4.4-5.5,8.5-9.4,11.9c-2.1,1.8-3.6,4-4.9,6.4c-0.7,1.3-0.5,2.4,0.4,3.5c0.9,1.1,2,1.5,3.5,1.2
	c3.1-0.6,5.8-2,8.3-4c1.5-1.2,2.5-3,4.2-3.8c3-1.3,4.8-3.9,7.1-5.9c0.3-0.3,0.3-0.5,0.3-0.9c-0.5-5,2.3-8.1,6.4-10.4
	c3.6-1.9,7.4-3.4,10.8-5.5c2.3-1.4,4.8-2.5,7.4-3.2C182.2,31.8,186.4,28.5,190.7,25.1L190.7,25.1z M152.9,54.1
	c-1.8,2.5-3.5,4.6-6,5.8c-2.1,1-2.9,2.8-3.3,4.7c-0.4,1.9,0.4,3.4,2,3.5c2.1,0.2,4.3,0.1,6.1-1c3.8-2.3,5.9-6.2,9.5-8.9
	C158,57.5,154.5,58,152.9,54.1z M196.8,23.6c1.5,0,3-0.1,4.5,0c1.5,0.1,3,0.6,4.8-0.2C202.7,22.4,199.7,22.3,196.8,23.6z"/>
<path class="st0" d="M122.4,140.6c-3.4-0.3-6.3-1.8-9.4-2.4c-3.1-0.6-6.2-1.2-9.4-1.4c-3.2-0.2-6.4,0.6-9.9,0.2
	C98.4,133.1,119.6,135.8,122.4,140.6L122.4,140.6z"/>
<path class="st0" d="M199.5,91.1c14.9-0.8,15.3-1.4,15.7-27.2c0.5,25.8,0.8,26.4,15.7,27.2c-14.9,0.8-15.3,1.4-15.7,27.2
	C214.8,92.6,214.4,91.9,199.5,91.1z"/>
<path class="st0" d="M207.2,73c-11.6,0.8-12.2,1.4-13,12.7c-0.8-11.3-1.4-11.9-13-12.7c11.6-0.8,12.2-1.4,13-12.7
	C195,71.6,195.7,72.3,207.2,73z"/>
</svg>
