<?xml version="1.0" encoding="utf-8"?>
<!-- Generator: Adobe Illustrator 27.5.0, SVG Export Plug-In . SVG Version: 6.00 Build 0)  -->
<svg version="1.1" id="Capa_1" xmlns="http://www.w3.org/2000/svg" xmlns:xlink="http://www.w3.org/1999/xlink" x="0px" y="0px"
	 viewBox="0 0 360 61" style="enable-background:new 0 0 360 61;" xml:space="preserve">
<style type="text/css">
	.st0{fill:#FFFFFF;}
</style>
<path class="st0" d="M194.5,31.9c0,9.7,4.9,14.5,14.9,14.5c-10,0-14.9,4.8-14.9,14.5c0-9.7-4.9-14.5-14.9-14.5
	C189.6,46.4,194.5,41.6,194.5,31.9z"/>
<path class="st0" d="M47.5,46c1.9-1,3.1-2.6,4.1-4.9c2.5-6.1,4.8-11.7,6.8-16.7c3.5-8.4,7-17.2,7.4-18.3V6h0.4l15.6,35.1
	c1.5,3.4,2.7,4.4,4,4.8v0.4c-2.5-0.2-4.4-0.2-6.3-0.2s-3.9,0-6.6,0.2c-3.3,0-5.2-1.8-6.7-4.2c-0.8-1.2-1.5-2.5-2-3.8
	c-1.8-4.1-3.8-7.4-7.4-7.4h-0.5c-1.7,4.3-3.3,8.1-3.9,9.8c-0.3,0.7-0.4,1.4-0.4,2c0,0.4,0.1,1,0.3,1.7s1,1.2,2.4,1.7v0.4
	c-1.4-0.1-2.4-0.2-3.3-0.2c-1.2,0-2.3,0-3.9,0.2L47.5,46L47.5,46z M56.5,30.3h0.2c1.2,0,2.2,0.3,3.2,0.9c2.1,1.4,3.4,4,4.6,6.7
	c1.7,3.6,3.6,8,8.4,8c2.1,0,2.4-1.7,2.4-2.5c0-0.5-0.1-1.4-0.6-2.8c0-0.1-0.1-0.3-0.1-0.3c-9-20.3-9.2-20.7-11.5-26
	c-0.8,1.8-2.6,6.4-4.6,11.2C57.8,27.1,57.1,28.7,56.5,30.3z"/>
<path class="st0" d="M91.9,41V10.1c-0.7-1.3-1.3-2.2-1.7-2.9c-0.2-0.4-0.4-0.8-0.6-1.1h7.2c0.8,1.4,4.4,7.7,8.5,14.9l4.2,7.3
	c2.8,4.9,5.5,9.7,7.4,13V11.4c0-3.5-0.4-4.9-3.9-4.9V6c3.9,0.1,4.8,0.1,8.2,0v0.5c-3.5,0-3.9,1.1-3.9,5v30.8c0.7,1.3,1.3,2.3,1.7,3
	c0.2,0.4,0.4,0.8,0.6,1.1h-7.1C110.2,42.2,98,20.8,92.3,11v30.2c0,3.6,0.4,4.8,3.9,4.8v0.5c-3.4-0.1-4.3-0.1-8.2,0v-0.6
	C91.5,45.9,91.9,44.4,91.9,41L91.9,41z"/>
<path class="st0" d="M128.6,40.5V11c0-2.8-0.3-4.6-3.2-4.6V5.9H143c13.3,0,17.6,12.3,17.6,19.6c0,8.5-4.3,20.8-17.6,20.8h-18.2v-0.4
	C128,45.9,128.6,44.1,128.6,40.5z M134.8,45.8h6.2c10,0,13.3-9.9,13.3-20.2c0-10.4-3.9-19.1-13.9-19.1h-5.5L134.8,45.8L134.8,45.8z"
	/>
<path class="st0" d="M245.4,46c1.9-1,3.1-2.6,4.1-4.9c2.5-6.1,4.8-11.7,6.8-16.7c3.5-8.4,7-17.2,7.4-18.3V6h0.4l15.6,35.1
	c1.5,3.4,2.7,4.4,4,4.8v0.4c-2.5-0.2-4.4-0.2-6.3-0.2s-3.9,0-6.6,0.2c-3.3,0-5.2-1.8-6.7-4.2c-0.8-1.2-1.5-2.5-2-3.8
	c-1.8-4.1-3.8-7.4-7.4-7.4h-0.5c-1.7,4.3-3.3,8.1-3.9,9.8c-0.3,0.7-0.4,1.4-0.4,2c0,0.4,0.1,1,0.3,1.7s1,1.2,2.4,1.7v0.4
	c-1.4-0.1-2.4-0.2-3.3-0.2c-1.2,0-2.3,0-3.9,0.2V46L245.4,46z M254.4,30.3h0.2c1.2,0,2.2,0.3,3.2,0.9c2.1,1.4,3.4,4,4.6,6.7
	c1.7,3.6,3.6,8,8.4,8c2.1,0,2.4-1.7,2.4-2.5c0-0.5-0.1-1.4-0.6-2.8c0-0.1-0.1-0.3-0.1-0.3c-9-20.3-9.2-20.7-11.5-26
	c-0.8,1.8-2.6,6.4-4.6,11.2C255.7,27.1,255,28.7,254.4,30.3L254.4,30.3z"/>
<path class="st0" d="M289.8,40.5V11c0-2.8-0.3-4.6-3.2-4.6V5.9h17.6c13.3,0,17.6,12.3,17.6,19.6c0,8.5-4.3,20.8-17.6,20.8H286v-0.4
	C289.3,45.9,289.8,44.1,289.8,40.5z M296,45.8h6.2c10,0,13.3-9.9,13.3-20.2c0-10.4-3.9-19.1-13.9-19.1H296V45.8L296,45.8z"/>
<path class="st0" d="M325.3,46.4v-0.5c3.3,0,3.9-1.8,3.9-5.4V11c0-2.8-0.3-4.6-3.2-4.6V5.9h32.4V6l1.6,8.9l-0.4,0.1
	c-4.8-6.5-8.6-8.5-17.8-8.5h-6.4v16.6h2c8.8,0,11.3-1.6,12.8-6.5h0.3v13.5h-0.3c-2.3-4.7-4-6.5-12.8-6.5h-2v22.2h5.3
	c8.9,0,14-1.9,19-9l0.3,0.1l-1.7,9.4L325.3,46.4L325.3,46.4z"/>
<path class="st0" d="M4.3,42c0.1-0.3,0.1-0.7,0.1-1.1V5.8c0-3.2-0.4-5.2-3.7-5.2V0.1C4.1,0.2,6,0.3,8,0.3c2.1,0,4-0.1,7.3-0.3v0.5
	c-3.3,0-3.7,2-3.7,5.1v14.1c8.4-0.1,16.7-0.1,25.1-0.2V5.7c0-0.3-0.2-2.8-2.5-4.3c-1.6-1-3.2-0.9-3.7-0.8V0.1
	c3.4,0.2,5.7,0.3,8.2,0.3c1.8,0,3.8-0.1,6.4-0.3v0.5c-3.3,0-3.7,2-3.7,5.1v34.5c0,3.9,0.8,5.7,4.5,5.7v0.5c-3.8-0.2-5.9-0.3-7.9-0.3
	c-2.2,0-4.3,0.1-8.2,0.3v-0.5c1.7-0.3,3-0.7,4-1.1c1.1-0.4,1.5-0.7,1.9-1c0.9-1,0.9-2.2,0.8-2.8c0.1-6.8,0.2-13.7,0.2-20.5
	c-8.4,0-16.7-0.1-25.1-0.1v19.9c0,3.9,0.8,5.7,4.5,5.7v0.5c-4-0.2-6-0.2-8.3-0.2c-2,0-4.1,0.1-7.8,0.2V46C3.1,45.8,4,44.6,4.3,42
	L4.3,42z"/>
<path class="st0" d="M193.9,40.2V4.8L191.8,0h7.8l17.6,40.5c-0.1-0.6-0.1-1.2-0.1-1.9c0-0.4,0-0.9,0.1-1.4c0.5-4.7,3.4-8.7,6.3-12.9
	c3.6-5.3,7.6-10.7,8.3-18.6c0-3.1-0.4-5.2-3.7-5.2V0c3.2,0.2,5.1,0.3,7.1,0.3c2.1,0,4.1-0.1,7.5-0.3v0.5c-1.2,0.1-2.1,0.5-2.6,0.8
	c-2.2,1.3-3.2,4.2-2.8,7.3c0.1,10.5,0.2,21,0.2,31.5c0,0.3,0.2,3.3,2.7,4.8c1.3,0.8,2.6,0.9,3.2,0.9v0.5c-2.6-0.2-5.3-0.2-7.7-0.2
	s-4.5,0.1-6,0.1c-0.9,0.1-1.7,0.1-2.4,0.1v-0.5c4,0,4.4-2.2,4.4-6.2V9.4c-1.8,7.6-6.3,13.2-9.9,18.2c-1.2,1.7-2.2,3.4-3,5.2
	c-0.7,1.8-1.1,3.2-1.2,4.2c-0.1,1-0.1,1.6-0.1,1.8c0,1.8,0.5,3.7,1.4,5.8l0.7,1.6c-1.2,0-2.3,0.1-3.5,0.1
	c-3.8-8.1-6.6-14.2-8.5-18.4c-2.4-5.3-5.6-10.3-8-15.6c-0.3-0.6-1-2.2-2.6-3.9c-1-1-1.9-1.7-2.5-2.2c0,11.3-0.1,22.5-0.1,33.8
	c0,4.6,0.4,5.7,4.4,5.7v0.5c-3.9-0.2-5-0.2-9.5,0v-0.5C193.4,45.8,193.9,44.1,193.9,40.2L193.9,40.2z"/>
</svg>
